<?xml version="1.0" encoding="UTF-8" standalone="no"?>
<!-- Created with Inkscape (http://www.inkscape.org/) -->

<svg
   version="1.1"
   id="svg1"
   width="816"
   height="1056"
   viewBox="0 0 816 1056"
   sodipodi:docname="texturelabs_vector_199.pdf"
   xmlns:inkscape="http://www.inkscape.org/namespaces/inkscape"
   xmlns:sodipodi="http://sodipodi.sourceforge.net/DTD/sodipodi-0.dtd"
   xmlns="http://www.w3.org/2000/svg"
   xmlns:svg="http://www.w3.org/2000/svg">
  <defs
     id="defs1" />
  <sodipodi:namedview
     id="namedview1"
     pagecolor="#ffffff"
     bordercolor="#000000"
     borderopacity="0.25"
     inkscape:showpageshadow="2"
     inkscape:pageopacity="0.0"
     inkscape:pagecheckerboard="0"
     inkscape:deskcolor="#d1d1d1">
    <inkscape:page
       x="0"
       y="0"
       inkscape:label="1"
       id="page1"
       width="816"
       height="1056"
       margin="0"
       bleed="0" />
  </sodipodi:namedview>
  <g
     id="g1"
     inkscape:groupmode="layer"
     inkscape:label="1">
    <g
       id="group-R5">
      <path
         id="path2"
         d="m 6698.77,4974.85 c -66.3,107.88 -262.22,120.24 -480.98,153.58 -218.76,33.34 -459.25,-45.7 -794.52,-87.28 -335.26,-41.58 -1011.41,-277.57 -1319.32,-401.94 -307.93,-124.37 -684.02,-501.58 -851.84,-671.65 -167.82,-170.07 -966.46,-1123.79 -1041.38,-1247.78 -74.92,-123.99 -154.33,-323.65 -277.95,-468.62 -95.89,-112.38 -236.74,-407.19 -295.18,-533.8 -16.71,27.73 -36.16,53.71 -58.06,77.54 0,0 73.05,52.07 48.69,110.13 -17.97,36.83 -49.73,65.09 -88.4,78.67 -3.6,21.74 -8.48,43.26 -14.61,64.43 17,103.05 40.14,205 69.3,305.3 77.06,278.75 209,539.32 388.09,766.42 5.71,5.83 5.71,15.15 0,20.97 -6.55,5.18 -16.03,4.18 -21.36,-2.24 -186.23,-236.35 -322.24,-508.25 -399.69,-799.02 -25.1,-89.52 -42.7,-169.69 -55.07,-234.87 -14.98,32.59 -35.58,59.19 -61.81,59.19 -26.22,0 -46.45,-26.6 -61.8,-59.19 -11.99,65.18 -29.6,145.35 -54.7,234.87 -78.27,290.9 -215.04,562.77 -401.938,799.02 -4.57,6.9 -13.867,8.79 -20.765,4.22 -6.899,-4.57 -8.789,-13.87 -4.219,-20.77 0.515,-0.78 1.105,-1.51 1.762,-2.18 183.49,-232.74 317.69,-500.39 394.45,-786.65 26.19,-93.17 47.19,-187.71 62.93,-283.2 -9.74,-34.84 -14.61,-64.43 -14.61,-64.43 -38.66,-13.58 -70.43,-41.84 -88.4,-78.66 -23.98,-58.07 48.69,-110.14 48.69,-110.14 -21.75,-23.87 -41.07,-49.84 -57.69,-77.54 -58.43,124.74 -199.66,420.3 -295.175,532.68 -123.617,144.97 -203.031,343.88 -278.328,468.62 -75.293,124.74 -873.559,1076.96 -1041,1247.03 -167.446,170.07 -543.168,547.28 -851.837,671.65 -308.66,124.37 -983.69,360.74 -1320.82,401.94 -337.14,41.21 -572.39,120.25 -793.02,87.28 -220.64,-32.96 -415.06,-45.7 -480.61,-153.58 -65.56,-107.89 -181.31,-194.79 -141.6,-302.67 39.71,-107.89 26.22,-273.46 114.63,-393.71 88.4,-120.24 264.84,-170.06 304.55,-286.19 39.7,-116.12 -13.12,-157.33 141.22,-289.94 154.33,-132.6 268.96,-95.52 224.76,-302.67 -44.21,-207.15 48.69,-436.03 115,-539.04 66.3,-103.02 -106.02,-414.68 -66.31,-592.99 39.71,-178.31 163.33,-207.15 163.33,-377.22 0,-170.06 -61.81,-277.95 39.7,-414.68 101.52,-136.72 92.91,-323.27 304.55,-389.58 211.65,-66.3 1341.43,-82.78 1341.43,-82.78 0,0 -1323.82,-460.38 -1411.85,-1119.669 0,0 -220.64,-236.371 -185.43,-343.883 35.21,-107.508 119.12,-49.82 123.62,-120.242 4.49,-70.426 105.64,-116.125 74.92,-174.188 -30.72,-58.062 -243.49,-240.492 -168.57,-348.378 74.92,-107.88 145.72,-70.42 154.71,-157.33 8.99,-86.9 88.03,-128.48 97.02,-157.7 8.99,-29.22 -136.73,-356.62 -8.99,-431.16 127.73,-74.55 203.03,-41.58 220.64,-120.25 5.34,-47.24 31.25,-89.73 70.79,-116.12 26.23,-20.61 -119.12,-273.46 8.62,-364.86 127.73,-91.4 220.64,45.7 286.94,-32.97 66.3,-78.66 163.33,-103.76 203.03,-141.22 39.71,-37.46 61.81,-203.03 145.72,-219.51 83.91,-16.49 145.34,78.66 255.85,24.72 89.62,-48.39 189.26,-75.32 291.06,-78.66 88.4,0 61.81,-120.25 229.626,-53.94 167.821,66.3 251.356,120.24 436.782,273.82 185.422,153.59 388.4567,443.52 388.4567,443.52 0,0 83.9062,-29.21 207.5233,203.04 123.617,232.24 608.348,957.84 768.301,1144.389 159.951,186.551 282.441,650.676 432.661,845.8399 l 92.52,119.4961 92.9,-119.4961 C 1685.55,-236.535 1809.17,-700.66 1968,-887.211 c 158.82,-186.549 644.3,-912.139 767.92,-1144.389 123.62,-232.25 207.53,-203.03 207.53,-203.03 0,0 202.65,-290.32 388.08,-443.53 185.42,-153.2 269.33,-207.52 436.77,-273.82 167.45,-66.31 141.23,53.94 229.63,53.94 101.92,3.34 201.68,30.27 291.44,78.66 110.13,53.94 171.94,-41.2 255.85,-24.72 83.91,16.48 106.01,182.43 145.72,219.51 39.7,37.09 136.72,62.18 202.65,141.23 65.93,79.04 159.21,-58.07 286.95,32.96 127.73,91.03 -17.61,344.26 8.99,364.86 39.29,26.58 65.01,68.99 70.42,116.12 17.6,78.67 92.9,45.7 220.64,120.25 127.73,74.54 -17.61,402.31 -8.62,431.16 8.99,28.84 88.03,70.42 97.02,157.7 8.99,87.28 79.42,49.45 154.33,157.33 74.93,107.886 -136.72,290.316 -167.44,348.378 -30.72,58.063 70.42,103.762 74.92,174.188 4.5,70.422 88.03,12.359 123.62,120.246 35.58,107.883 -185.43,343.879 -185.43,343.879 C 5480.59,543 4156.76,1003.38 4156.76,1003.38 c 0,0 1129.79,16.48 1341.43,82.78 211.65,66.31 203.03,252.86 304.55,389.59 101.51,136.72 39.71,244.61 39.71,414.67 0,170.07 123.61,198.92 163.32,377.22 39.71,178.31 -132.23,489.22 -66.3,592.99 65.92,103.76 159.2,331.51 115,539.04 -44.2,207.53 70.42,169.69 224.76,302.68 154.33,132.98 101.14,173.81 141.22,289.94 40.08,116.12 216.14,165.94 304.17,286.19 88.03,120.24 74.92,286.19 115,393.7 40.08,107.51 -74.92,195.16 -140.85,302.67"
         style="fill:#000000;fill-opacity:1;fill-rule:nonzero;stroke:none"
         transform="matrix(0.13333333,0,0,-0.13333333,0,1056)" />
    </g>
  </g>
</svg>
