<?xml version="1.0" encoding="UTF-8" standalone="no"?>
<!-- Created with Inkscape (http://www.inkscape.org/) -->

<svg
   version="1.1"
   id="svg1"
   width="816"
   height="1056"
   viewBox="0 0 816 1056"
   sodipodi:docname="texturelabs_vector_310.pdf"
   xmlns:inkscape="http://www.inkscape.org/namespaces/inkscape"
   xmlns:sodipodi="http://sodipodi.sourceforge.net/DTD/sodipodi-0.dtd"
   xmlns="http://www.w3.org/2000/svg"
   xmlns:svg="http://www.w3.org/2000/svg">
  <defs
     id="defs1" />
  <sodipodi:namedview
     id="namedview1"
     pagecolor="#ffffff"
     bordercolor="#000000"
     borderopacity="0.25"
     inkscape:showpageshadow="2"
     inkscape:pageopacity="0.0"
     inkscape:pagecheckerboard="0"
     inkscape:deskcolor="#d1d1d1">
    <inkscape:page
       x="0"
       y="0"
       inkscape:label="1"
       id="page1"
       width="816"
       height="1056"
       margin="0"
       bleed="0" />
  </sodipodi:namedview>
  <g
     id="g1"
     inkscape:groupmode="layer"
     inkscape:label="1">
    <g
       id="group-R5">
      <path
         id="path2"
         d="m -955.406,-3018.93 c -30.633,232.39 -76.054,409.33 -294.194,494.37 -340.67,132.57 -543.48,338.55 -554.04,660.2 -6.34,185.39 -149.47,338.03 -268.84,493.31 -102.47,133.1 -211.27,264.09 -260.91,432.573 282.57,25.352 479.57,-77.113 657.03,-208.093 138.91,-102.47 279.93,-172.72 468.49,-97.19 188.55,75.53 211.265,211.27 230.28,348.065 23.77,161.617 -62.85,307.394 -169.54,435.738 -178.33,212.676 -255.44,492.3554 -211.27,766.371 36.97,299.469 -60.74,574.117 -217.08,841.896 -105.63,184.86 -101.93,378.17 -146.3,607.92 148.95,-70.77 259.33,-124.12 369.72,-173.24 211.27,-91.9 338.03,-24.82 392.955,136.8 42.453,102.74 60.527,213.92 52.82,324.82 -82.395,567.25 -59.684,1146.12 -305.815,1705.98 -105.63,245.07 -238.2,484.33 -229.75,752.11 16.14,93.24 36.94,185.61 62.33,276.76 35.01,-79.67 75.23,-156.95 120.42,-231.33 116.19,-140.94 268.155,-248.02 439.959,-310.04 205.985,-78.17 273.59,-236.62 367.606,-378.17 115.668,-175.35 247.183,-398.76 523.4139,-333.8 260.9141,62.85 252.9921,297.89 186.9731,486.97 -141.551,404.05 -37.5,783.8 169.539,1142.96 76.64,138.86 100.468,300.75 67.078,455.8 -39.614,249.83 -11.09,560.39 15.316,816.55 112.5,-34.33 128.344,-151.58 145.774,-190.67 76.586,-171.12 112.5,-363.91 242.957,-505.98 415.664,-452.64 425.174,-941.2 502.284,-1428.7 41.2,-258.27 -99.29,-485.38 -122.53,-732.03 -19.52,-201.09 49.95,-400.65 190.14,-546.13 105.63,-118.84 236.62,-139.96 374.47,-30.63 245.6,194.36 284.15,441.54 264.08,686.62 -23.76,277.81 240.85,422.53 407.75,621.65 149.47,-524.48 552.46,-1009.86 145.24,-1531.69 -185.86,-250.74 -343.84,-521 -471.12,-805.98 -52.82,-111.97 -25.35,-255.11 185.38,-292.08 210.74,-36.97 369.72,22.18 409.34,184.33 24.29,95.07 67.6,188.56 71.83,283.63 10.03,216.55 211.26,342.25 415.66,484.85 C 3390.36,2022.43 3621.69,1466.8 3074.51,935.461 2824.69,690.918 2691.59,347.082 2546.34,37.5742 c -56.51,-118.8359 -7.92,-211.2652 98.24,-278.8712 106.17,-67.605 179.05,11.094 259.86,52.817 158.45,84.507 237.15,231.8667 385.56,332.218 13.73,-201.2341 -122.53,-369.718 -150,-555.105 -45.42,-313.203 -369.71,-486.969 -510.21,-758.973 -105.63,-199.12 -181.16,-398.24 -147.36,-619.54 17.43,-109.86 32.75,-216.02 178,-247.71 124.69,-29.99 255.61,13.18 338.02,111.44 21.96,-107.53 27.48,-217.76 16.38,-326.94 -57.04,-408.8 -516.55,-1421.82 -1181.51,-2128.51 -69.5,261.53 -3.48,540.49 175.88,743.13 241.9,284.68 241.37,663.91 234.5,813.91 -6.86,150 -25.88,285.74 -25.88,285.74 -98.77,-70.25 -149.47,-291.02 -211.27,-383.45 -52.81,-76.59 -105.63,-166.37 -222.88,-141.55 -117.25,24.82 -132.57,122 -132.04,223.41 0,392.43 231.86,726.23 362.85,1077.99 92.03,260.99 155.25,531.26 188.56,805.986 -113.03,-74.476 -221.31,-267.776 -334.34,-229.226 -113.02,38.56 -105.63,167.96 -128.34,256.691 -40.07,150.629 -33.81,309.844 17.96,456.864 28.51,78.304 34.37,163.058 16.9,244.542 -52.82,246.6528 -242.43,475.348 -192.78,709.856 49.65,234.508 -324.3,565.137 -486.97,767.957 -87.15,110.39 -183.279,216.02 -273.595,325.35 -30.105,35.92 -151.055,226.58 -151.055,226.58 0,0 -43.84,-211.26 -42.781,-252.46 -7.383,-95.18 0.465,-190.92 23.238,-283.63 C 781.734,896.375 362.898,549.371 387.195,209.758 c 5.809,-79.754 0,-158.4494 60.739,-225.5275 183.273,-211.2655 123.062,-415.6685 22.183,-627.9925 -16.375,-33.801 -32.746,-72.886 -90.844,-77.64 -58.101,-4.75 -80.285,33.804 -105.636,65.496 -170.071,224.996 -448.414,387.672 -641.196,604.7497 -67.246,53.83989 -137.808,103.4102 -211.265,148.4141 0,0 34.859,-193.8359 69.191,-239.7848 183.274,-245.071 441.0197,-598.946 362.32,-873.593 -49.648,-174.29 15.321,-316.9 164.7896,-458.45 255.1054,-237.14 297.8864,-528.16 340.6684,-819.18 7.394,-52.82 -26.407,-93.49 -99.293,-105.64 -81.868,-16.37 -163.7348,-3.16 -204.9301,52.82 -170.0699,227.11 -495.9489,258.8 -829.2229,414.61 133.098,-199.12 264.082,-337.5 280.457,-500.7 37.5,-365.49 230.809,-673.94 542.9534,-936.44 48.3945,-48.61 83.1796,-109.08 100.8826,-175.35 77.641,-211.27 -58.6287,-327.47 -341.195,-288.91 -101.41,14.26 -198.067,45.42 -335.387,78.7 62.953,-194.97 168.086,-373.68 307.918,-523.42 -356.512,130.46 -619.012,348.59 -616.367,649.12 2.641,300.53 -88.734,377.64 -119.367,610.03"
         style="fill:#000000;fill-opacity:1;fill-rule:nonzero;stroke:none"
         transform="matrix(0.13333333,0,0,-0.13333333,0,1056)" />
    </g>
  </g>
</svg>
