<?xml version="1.0" encoding="UTF-8" standalone="no"?>
<!-- Created with Inkscape (http://www.inkscape.org/) -->

<svg
   version="1.1"
   id="svg1"
   width="816"
   height="1056"
   viewBox="0 0 816 1056"
   sodipodi:docname="texturelabs_vector_290.pdf"
   xmlns:inkscape="http://www.inkscape.org/namespaces/inkscape"
   xmlns:sodipodi="http://sodipodi.sourceforge.net/DTD/sodipodi-0.dtd"
   xmlns="http://www.w3.org/2000/svg"
   xmlns:svg="http://www.w3.org/2000/svg">
  <defs
     id="defs1" />
  <sodipodi:namedview
     id="namedview1"
     pagecolor="#ffffff"
     bordercolor="#000000"
     borderopacity="0.25"
     inkscape:showpageshadow="2"
     inkscape:pageopacity="0.0"
     inkscape:pagecheckerboard="0"
     inkscape:deskcolor="#d1d1d1">
    <inkscape:page
       x="0"
       y="0"
       inkscape:label="1"
       id="page1"
       width="816"
       height="1056"
       margin="0"
       bleed="0" />
  </sodipodi:namedview>
  <g
     id="g1"
     inkscape:groupmode="layer"
     inkscape:label="1">
    <g
       id="group-R5">
      <path
         id="path2"
         d="m 3823.41,-1245.33 -334.67,27.44 -1859.87,2756.88 h 126.46 c 74.39,-0.15 134.81,60.03 134.96,134.41 0.01,0.09 0.01,0.19 0.01,0.28 v 593.07 c 0,74.54 -60.43,134.96 -134.97,134.96 h -190.1 l 2241.17,3322.8 155.53,-219.45 268.28,996.87 -822.94,-622.16 262.24,-61.99 -2213.73,-3282.2 1148.84,3761.98 213.14,-164.59 -34.84,1031.43 -605.42,-835.84 268.84,17.28 -1157.62,-3785.57 v 3933.98 l 252.1,-95.47 -335.5,976.57 -335.211,-976.57 252.101,95.47 V 2560 L -35.1328,6345.57 233.695,6328.29 -372.27,7164.4 -407.109,6132.42 -193.965,6297.01 956.246,2534.48 -1257.49,5817.23 l 262.248,62 -822.948,622.15 267.18,-996.87 155.81,219.45 2241.173,-3322.8 H 655.867 c -74.535,0 -134.961,-60.42 -134.961,-134.96 v -593.07 c 0,-74.39 60.301,-134.69 134.688,-134.69 0.094,0 0.183,0 0.273,0 h 126.461 l -1860.138,-2757.43 -334.94,-27.44 -689.09,-1020.73 440.28,34.57 133.04,-421.36 688.54,1021.84 -101.223,320.13 1911.715,2833.41 -1006.469,-3291.8 -312.445,-122.9 -360.18,-1179.55 411.477,161.84 250.4487,-364.02 360.1793,1179.57 -190.101,276.5 998.788,3269.04 v -3443.5 l -261.425,-208.75 v -1232.51 l 345.915,274.32 345.91,-274.32 v 1232.51 l -263.07,208.75 v 3443.5 l 997.69,-3269.31 -190.37,-276.51 360.45,-1179.56 250.73,363.74 411.47,-161.85 -360.18,1179.57 -312.45,122.89 -1006.47,3291.8 1910.89,-2833.42 -100.94,-320.12 689.35,-1021.83 132.77,421.35 440.56,-34.57 -689.63,1022.38"
         style="fill:#000000;fill-opacity:1;fill-rule:nonzero;stroke:none"
         transform="matrix(0.13333333,0,0,-0.13333333,0,1056)" />
    </g>
  </g>
</svg>
