<?xml version="1.0" encoding="UTF-8" standalone="no"?>
<!-- Created with Inkscape (http://www.inkscape.org/) -->

<svg
   version="1.1"
   id="svg1"
   width="816"
   height="1056"
   viewBox="0 0 816 1056"
   sodipodi:docname="texturelabs_vector_204.pdf"
   xmlns:inkscape="http://www.inkscape.org/namespaces/inkscape"
   xmlns:sodipodi="http://sodipodi.sourceforge.net/DTD/sodipodi-0.dtd"
   xmlns="http://www.w3.org/2000/svg"
   xmlns:svg="http://www.w3.org/2000/svg">
  <defs
     id="defs1" />
  <sodipodi:namedview
     id="namedview1"
     pagecolor="#ffffff"
     bordercolor="#000000"
     borderopacity="0.25"
     inkscape:showpageshadow="2"
     inkscape:pageopacity="0.0"
     inkscape:pagecheckerboard="0"
     inkscape:deskcolor="#d1d1d1">
    <inkscape:page
       x="0"
       y="0"
       inkscape:label="1"
       id="page1"
       width="816"
       height="1056"
       margin="0"
       bleed="0" />
  </sodipodi:namedview>
  <g
     id="g1"
     inkscape:groupmode="layer"
     inkscape:label="1">
    <g
       id="group-R5">
      <path
         id="path2"
         d="m 1521.09,2049.57 c -2107.485,151.2 -2615.25,-794.19 -3847.9,-1671.543 -447.29,-78.535 -1791.24,-533.379 -1791.24,-533.379 l 30.66,-364.968 c 0,0 1082.72,492.6442 1779.9,677.015 228.47,-131.8747 733.71,-404.863 1565.701,-737.074 823.5898,-329.266 1999.549,-788.731 3325.019,-671.971 758.5,65.94 1616.53,301.545 2496.4,811.827 C 5961.59,40.3594 6691.95,706.039 6691.95,706.039 5415.61,530.902 3682.76,1850.5 1521.09,2049.57 Z m 616.12,-1719 C 1023.41,526.703 -19.8359,601.883 -784.629,562.402 -1206.16,547.555 -1625.28,492.141 -2036.18,396.93 c 385.61,128.179 783.3,216.695 1186.875,264.168 711.453,91.558 1677.422,84 2714.785,-105.836 C 3322.83,294.871 4755.4,-4.57813 6026.7,453.629 6026.7,464.965 5819.64,333.93 5228.72,228.094 4640.32,128.977 3668.05,55.4805 2137.21,330.57"
         style="fill:#000000;fill-opacity:1;fill-rule:nonzero;stroke:none"
         transform="matrix(0.13333333,0,0,-0.13333333,0,1056)" />
    </g>
  </g>
</svg>
