<?xml version="1.0" encoding="UTF-8" standalone="no"?>
<!-- Created with Inkscape (http://www.inkscape.org/) -->

<svg
   version="1.1"
   id="svg1"
   width="816"
   height="1056"
   viewBox="0 0 816 1056"
   sodipodi:docname="texturelabs_vector_207.pdf"
   xmlns:inkscape="http://www.inkscape.org/namespaces/inkscape"
   xmlns:sodipodi="http://sodipodi.sourceforge.net/DTD/sodipodi-0.dtd"
   xmlns="http://www.w3.org/2000/svg"
   xmlns:svg="http://www.w3.org/2000/svg">
  <defs
     id="defs1" />
  <sodipodi:namedview
     id="namedview1"
     pagecolor="#ffffff"
     bordercolor="#000000"
     borderopacity="0.25"
     inkscape:showpageshadow="2"
     inkscape:pageopacity="0.0"
     inkscape:pagecheckerboard="0"
     inkscape:deskcolor="#d1d1d1">
    <inkscape:page
       x="0"
       y="0"
       inkscape:label="1"
       id="page1"
       width="816"
       height="1056"
       margin="0"
       bleed="0" />
  </sodipodi:namedview>
  <g
     id="g1"
     inkscape:groupmode="layer"
     inkscape:label="1">
    <g
       id="group-R5">
      <path
         id="path2"
         d="m 6874.36,822.563 h -251.31 c -139.34,156.046 -518.98,577.987 -688.89,746.477 -210.08,206.52 -699.91,657.6 -831.78,768.86 -131.88,111.26 -789.49,589.72 -935.58,667.92 -146.1,78.2 -556.66,383.9 -556.66,383.9 L 4760.78,2320.48 c 132.23,-122.63 667.56,-578.69 768.86,-678.93 85.67,-84.96 692.8,-619.22 934.52,-817.566 h -346.93 c -134.02,151.782 -505.83,581.896 -672.19,752.876 -205.1,209.01 -683.91,666.84 -812.94,779.88 -129.03,113.04 -774.91,604.29 -919.23,683.56 -144.32,79.27 -547.06,391.01 -547.06,391.01 0,0 995.3,-959.76 1124.33,-1084.52 129.04,-124.77 653.34,-592.2 752.16,-692.09 84.25,-86.73 685.69,-635.92 919.59,-835.692 h -258.78 c -136.5,154.269 -529.64,596.462 -704.53,769.582 -213.28,211.5 -710.92,675.37 -843.87,788.06 -132.94,112.68 -801.57,612.82 -950.15,693.15 -148.59,80.34 -563.41,391.01 -563.41,391.01 0,0 1035.82,-976.1 1169.83,-1101.93 134.01,-125.84 675.38,-592.56 776.69,-695.29 87.79,-87.8 715.9,-646.23 955.48,-846.004 h -257 c -140.05,148.582 -547.06,578.344 -727.27,746.474 -219.33,202.97 -729.77,649.78 -866.98,759.27 -137.21,109.48 -817.57,595.4 -970.06,670.76 -152.5,75.36 -574.43,377.86 -574.43,377.86 0,0 1066.39,-948.74 1204.31,-1069.95 137.92,-121.21 687.47,-571.23 793.04,-670.4 90.29,-84.96 732.26,-622.06 978.95,-815.436 h -256.29 c -137.57,142.184 -541.02,555.236 -718.75,716.256 -216.12,195.51 -718.04,623.13 -853.11,727.99 -135.08,104.86 -801.58,572.3 -948.74,643.75 -147.16,71.45 -560.21,359.02 -560.21,359.02 0,0 1051.11,-913.55 1186.54,-1030.85 135.43,-117.3 671.12,-544.93 775.27,-639.83 88.51,-81.05 716.26,-591.85 959.75,-777.758 h -257 c -138.99,137.563 -560.92,552.748 -746.47,713.058 -220.39,191.24 -736.52,614.6 -874.8,718.04 -138.27,103.44 -820.06,568.74 -969.35,638.05 -149.3,69.32 -571.59,352.63 -571.59,352.63 0,0 1082.75,-909.28 1222.44,-1024.09 139.7,-114.82 685.34,-536.75 792.33,-630.95 91.36,-80.34 738.66,-585.808 987.48,-768.515 h -255.22 c -147.17,133.652 -604.29,547.415 -804.42,706.305 -238.87,190.88 -791.97,606.78 -939.49,708.79 -147.51,102.02 -875.5,561.99 -1034.04,628.46 -158.54,66.48 -607.134,345.16 -607.134,345.16 0,0 1163.794,-902.88 1313.084,-1015.91 149.3,-113.04 727.64,-525.74 843.87,-618.87 97.04,-78.91 788.77,-575.849 1056.79,-755.712 h -239.58 c -145.74,127.964 -626.68,549.542 -833.56,710.922 -244.92,190.53 -811.88,604.29 -962.95,705.6 -151.07,101.31 -893.634,562.34 -1054.306,628.81 -160.668,66.48 -617.441,340.89 -617.441,340.89 0,0 1196.137,-906.78 1350.757,-1019.11 154.63,-112.33 741.5,-522.53 859.87,-615.31 100.6,-78.91 812.59,-575.849 1083.1,-752.869 h -240.29 c -142.19,118.723 -630.6,529.639 -839.25,684.619 -244.92,182 -810.46,577.63 -959.75,675.39 -149.3,97.75 -885.465,543.14 -1044,604.28 -158.539,61.14 -610.688,323.12 -610.688,323.12 0,0 1196.493,-875.15 1350.758,-982.5 154.27,-107.35 734.04,-497.65 853.12,-585.81 100.95,-76.07 810.81,-550.255 1079.9,-719.099 h -248.83 c -142.19,113.391 -623.48,497.649 -828.58,643.029 -241.72,170.98 -798.73,541.73 -946.61,632.02 -147.867,90.29 -867.328,513.29 -1021.95281,568.74 -154.62519,55.45 -596.11319,300.01 -596.11319,300.01 0,0 1181.562,-829.29 1331.922,-930.25 150.363,-100.95 717.684,-463.88 834.274,-547.06 98.46,-71.09 784.51,-506.887 1054.66,-668.266 h -240.29 c -127.61,95.621 -630.24,470.276 -840.32,608.906 -245.27,156.76 -801.926,501.92 -948.73,586.16 -146.809,84.25 -861.29,482.01 -1013.782,533.2 -152.496,51.18 -589.358,276.19 -589.358,276.19 0,0 1182.624,-782.02 1332.987,-875.86 150.36,-93.84 710.923,-429.4 826.813,-507.25 99.52,-66.47 794.46,-478.096 1058.21,-624.545 h -252.02 c -138.99,100.238 -628.46,451.795 -834.63,582.965 -241.717,153.55 -796.595,485.2 -943.049,565.53 -146.4488,80.34 -853.109,468.86 -1005.25,516.14 -152.136,47.27 -582.601,262.33 -582.601,262.33 0,0 1182.98,-764.25 1331.9178,-853.82 C 67.9492,1788.71 622.117,1468.08 738.707,1393.08 836.105,1330.52 1501.53,950.883 1775.95,803.367 h -255.22 c -137.57,93.485 -627.394,426.553 -832.851,547.413 -239.941,142.18 -790.555,452.51 -935.582,526.8 -145.027,74.29 -842.447,441.48 -989.607,483.78 -147.17,42.3 -572.3,240.65 -572.3,240.65 0,0 1176.938,-722.3 1325.524,-806.19 148.582,-83.89 691.731,-379.64 807.613,-449.66 95.977,-57.59 743.983,-404.875 1020.183,-544.215 h -223.94 c -127.618,79.27 -627.399,387.805 -834.278,500.495 -238.16,129.38 -782.019,407.71 -926.34,474.19 -144.316,66.47 -830.002,404.51 -973.972,440.06 -143.96,35.54 -560.92,213.28 -560.92,213.28 0,0 1168.06,-662.94 1315.217,-738.66 147.164,-75.71 678.582,-338.4 793.3941,-401.67 C 27.7813,1237.39 666.551,927.066 939.898,801.59 H 700.316 c -117.3,71.094 -591.843,355.46 -786.9957,457.12 -223.2303,115.53 -733.6753,367.2 -867.6833,426.92 -134.017,59.71 -773.137,371.81 -906.437,402.38 -133.29,30.57 -520.04,188.04 -520.04,188.04 0,0 1097.67,-612.82 1235.59,-681.42 137.92,-68.61 630.238,-302.15 738.301,-360.09 88.152,-46.92 672.89,-319.915 933.09,-435.794 H 273.762 c -115.168,63.984 -566.61,313.164 -752.16,402.384 -213.278,103.08 -700.262,322.41 -827.522,374.3 -127.26,51.9 -732.61,331.3 -857.73,355.46 -125.12,24.18 -490.54,159.61 -490.54,159.61 0,0 1049.33,-549.19 1180.85,-609.98 131.52,-60.78 595.043,-259.13 698.485,-311.03 82.113,-40.16 618.152,-268.017 871.5972,-372.521 H -143.195 c -106.641,53.316 -543.149,269.441 -720.883,346.221 -203.322,87.8 -666.132,273.35 -787.352,316.72 -121.21,43.36 -691.37,286.86 -808.68,305.34 -117.3,18.48 -462.1,130.1 -462.1,130.1 0,0 1001.34,-480.58 1126.82,-531.77 125.48,-51.19 560.57,-216.84 659.03,-259.49 77.13,-33.77 568.739,-220.742 815.43,-308.899 h -231.406 c -97.398,40.879 -536.394,229.269 -713.414,294.679 -199.41,73.58 -652.63,227.85 -770.29,263.76 -117.66,35.9 -675.38,248.82 -786.64,259.84 -111.26,11.02 -446.82,103.44 -446.82,103.44 0,0 982.15,-416.96 1104.78,-459.97 122.64,-43.01 543.51,-177.73 639.84,-213.28 73.93,-27.73 538.525,-177.73 782.017,-251.312 h -230.696 c -84.601,32.347 -491.251,180.218 -653.701,231.402 -181.99,55.46 -595.4,174.54 -702.75,201.2 -107.35,26.66 -610.33,196.57 -710.92,203.68 -100.6,7.1 -403.46,73.58 -403.46,73.58 0,0 898.62,-335.2 1010.23,-367.19 111.62,-32 490.89,-130.82 579.05,-158.543 65.41,-20.618 462.1,-126.899 689.95,-184.129 h -144.31 c -99.89,23.816 -437.93,103.793 -575.85,130.097 -162.81,30.571 -530,91.355 -624.91,103.795 -94.91,12.44 -545.99,108.42 -632.72,106.64 -86.74,-1.77 -350.49,22.39 -350.49,22.39 0,0 811.88,-197.989 911.05,-213.274 99.18,-15.285 434.73,-64.34 513.29,-79.266 35.55,-6.753 168.14,-27.371 313.88,-48.699 -142.19,7.11 -302.86,14.219 -391.01,15.641 -177.73,2.488 -577.63,0 -679.65,-3.199 -102.02,-3.2 -600.02,13.507 -688.53,-3.2 -88.51,-16.707 -370.04,-34.48 -370.04,-34.48 0,0 903.59,-54.387 1011.65,-54.031 108.06,0.355 470.28,9.597 556.66,7.82 55.45,0 345.15,4.621 562.69,10.309 -54.03,-4.621 -102.37,-8.887 -136.85,-12.797 -158.18,-18.129 -511.16,-67.184 -600.73,-82.465 -89.58,-15.285 -533.2,-55.809 -608.2,-83.535 -75,-27.727 -319.92,-77.492 -319.92,-77.492 0,0 810.46,49.41 906.08,62.207 95.62,12.796 413.76,64.336 490.54,71.089 76.78,6.754 604.29,91.711 699.19,111.973 h 191.6 c -219.68,-53.676 -655.47,-169.555 -723.37,-191.594 -88.16,-27.726 -467.08,-126.191 -579.05,-158.183 -111.97,-31.989 -1010.23,-367.1917 -1010.23,-367.1917 0,0 301.08,66.1133 402.39,73.2227 101.3,7.109 604.29,177.734 710.93,203.684 106.63,25.949 521.82,144.671 703.81,201.191 182,56.52 671.475,236.738 671.475,236.738 v 2.489 h 241.359 C -949.742,671.133 -1448.1,511.176 -1525.24,482.383 c -96.69,-35.547 -517.55,-170.266 -639.83,-213.278 -122.28,-43.011 -1104.79,-458.902 -1104.79,-458.902 0,0 333.79,90.2853 446.82,103.0822 113.04,12.7968 668.63,224.2968 787,260.1988 118.37,35.903 571.23,190.172 770.65,263.754 199.41,73.582 732.605,303.211 732.605,303.211 v 0 h 259.488 C -496.883,661.891 -1055.32,450.746 -1136.01,414.844 -1234.47,371.836 -1669.2,205.832 -1795.04,155 c -125.83,-50.828 -1126.82,-533.195 -1126.82,-533.195 0,0 344.45,111.617 462.11,130.101 117.66,18.485 688.89,262.6878 809.74,306.0549 120.86,43.3631 583.67,230.3401 786.998,318.1371 203.324,87.8 746.477,358.308 746.477,358.308 0.137,1.539 0.137,3.082 0,4.621 H 140.816 C -90.9453,646.965 -686.699,392.449 -773.789,348.02 -877.23,297.543 -1342.53,96.7031 -1472.27,36.9883 -1602.02,-22.7305 -2653.13,-572.277 -2653.13,-572.277 c 0,0 365.42,134.718 490.54,159.601 125.13,24.883 730.13,303.922 857.74,355.4651 127.61,51.54293 614.241,270.8629 827.518,373.9489 213.277,103.082 779.531,417.668 779.531,417.668 v 0 H 565.598 C 328.859,634.52 -314.176,332.734 -406.949,284.035 -515.012,226.094 -1005.2,-7.80078 -1145.25,-76.0508 -1285.3,-144.301 -2380.84,-757.473 -2380.84,-757.473 c 0,0 387.1,157.114 520.04,187.684 132.95,30.57 772.42,342.668 906.437,402.738 134.008,60.074 644.453,311.031 868.0388,428.692 C 137.266,379.297 727.688,735.117 727.688,735.117 v 0 H 976.512 C 727.688,623.504 32.0469,284.746 -67.4844,230.004 -182.297,166.73 -713.715,-95.957 -860.879,-171.672 -1008.04,-247.383 -2176.09,-910.324 -2176.09,-910.324 c 0,0 416.96,177.734 560.92,213.277 143.96,35.547 830.361,373.594 973.967,440.422 143.609,66.824 688.1796,344.4453 926.34,474.188 228.562,124.765 817.563,489.117 861.293,517.199 h 230.34 C 1124.39,609.281 423.055,233.914 323.172,173.484 207.289,102.391 -335.504,-191.93 -484.441,-275.82 c -148.942,-83.891 -1325.519,-806.55 -1325.519,-806.55 0,0 426.55,198.35 572.29,240.651 145.74,42.301 845.291,410.563 990.678,484.852 145.383,74.293 695.64,383.5467 935.578,526.797 221.098,132.234 771.354,505.824 857.734,564.476 h 261.62 C 1557.7,598.977 841.082,190.547 739.773,125.141 623.184,50.4961 70.082,-269.777 -79.9258,-359.711 -229.93,-449.641 -1412.91,-1212.82 -1412.91,-1212.82 c 0,0 432.242,213.277 582.601,261.972 150.364,48.7 858.4457,436.512 1005.25,516.493 146.809,79.976 701.332,411.6245 943.049,565.894 220.03,140.055 763.53,533.195 858.08,599.668 h 259.14 C 1999.54,602.887 1250.22,158.91 1146.43,91.3711 1029.83,13.5273 471.043,-322.031 319.617,-415.871 168.188,-509.715 -1013.37,-1291.73 -1013.37,-1291.73 c 0,0 437.218,225 589.354,276.19 152.141,51.185 866.621,450.017 1013.786,533.196 147.16,83.18 703.46,428.6877 945.18,588.289 226.07,149.297 791.26,572.297 863.06,625.973 h 245.63 C 2397.3,586.891 1663.27,120.164 1560.89,46.9414 1444.3,-36.5938 877.34,-399.523 726.621,-500.473 575.902,-601.426 -605.301,-1430.37 -605.301,-1430.37 c 0,0 441.485,243.49 596.1135,300.01 154.6255,56.52 874.0825,479.524 1021.9575,568.747 147.87,89.222 704.88,462.1013 946.6,632.0153 217.19,153.2027 743.99,575.1367 849.56,659.7387 h 253.44 C 2817.81,579.07 2059.96,72.8906 1955.46,-5.66797 1837.45,-94.1797 1255.91,-484.121 1102.35,-591.473 948.785,-698.82 -248.414,-1573.97 -248.414,-1573.97 c 0,0 451.793,261.26 610.684,323.11 158.894,61.85 893.64,508.317 1044,604.29 150.36,95.976 715.9,491.961 959.75,675.3825 220.39,163.5115 753.23,612.1095 859.16,701.3285 l 248.46,-6.399 C 3224.82,563.785 2468.75,35.9219 2364.6,-46.1914 2246.23,-138.613 1657.58,-548.816 1504.73,-661.145 1351.88,-773.469 153.969,-1680.26 153.969,-1680.26 c 0,0 456.418,275.13 617.441,340.89 161.024,65.76 901.46,528.932 1052.88,630.237 151.43,101.309 718.04,515.067 962.95,705.24237 C 3004.43,164.598 3523.77,621.012 3640.36,723.031 h 245.62 C 3640.71,559.52 2906.68,32.0117 2805.37,-49.7461 2690.2,-142.523 2110.8,-556.281 1961.5,-669.32 1812.21,-782.355 648.422,-1685.23 648.422,-1685.23 c 0,0 448.598,277.61 607.128,345.15 158.54,67.54 885.46,528.576 1033.33,630.592 147.88,102.019 700.62,517.554 939.5,708.44112 C 3438.1,166.73 3931.48,612.484 4053.76,723.742 h 259.85 C 4084.68,558.098 3398.29,21.3477 3303.73,-61.832 3197.09,-156.031 2650.75,-577.965 2511.4,-692.777 2372.06,-807.594 1288.96,-1716.52 1288.96,-1716.52 c 0,0 421.94,284.38 571.59,352.63 149.65,68.25 831.43,533.191 969.35,639.831 137.92,106.637 654.41,523.598 876.57,716.25822 C 3900.2,159.977 4352,605.73 4468.94,721.965 h 261.98 C 4506.27,552.055 3840.48,11.0391 3749.13,-72.8516 3644.98,-168.113 3109.29,-596.805 2973.86,-712.684 2838.43,-828.566 1787.32,-1743.53 1787.32,-1743.53 c 0,0 413.41,287.57 560.22,359.02 146.8,71.45 814.01,538.526 948.73,643.389 134.72,104.859 636.28,533.195 853.11,728.3437 C 4334.93,155 4765.75,597.906 4884.84,720.188 H 5146.1 C 4917.89,542.457 4238.25,-26.2852 4145.47,-112.309 4038.83,-211.836 3490,-661.496 3352.43,-782.711 3214.87,-903.926 2148.12,-1853.01 2148.12,-1853.01 c 0,0 423.71,301.79 574.43,377.15 150.72,75.35 832.85,560.915 970.06,671.11 137.21,110.195 647.66,556.656 866.98,761.0469 187.68,174.8871 620.99,633.4371 743.27,763.1801 h 261.62 C 5342.31,536.77 4678.66,-52.9453 4588.38,-143.234 4485.65,-246.316 3945.7,-711.973 3811.69,-838.875 3677.68,-965.773 2641.86,-1940.81 2641.86,-1940.81 c 0,0 415.18,313.16 563.41,391.01 148.23,77.85 815.79,578.695 949.8,692.796 134.01,114.106 630.59,576.563 843.87,788.0626 180.93,179.5074 598.6,650.5004 718.74,785.9294 h 263.4 C 5764.25,533.215 5127.97,-46.1914 5042.3,-136.125 4943.48,-237.785 4419.18,-701.313 4290.14,-825.367 L 3165.81,-1910.24 c 0,0 402.39,311.03 547.06,391.01 144.67,79.98 790.2,568.738 919.23,683.554 129.03,114.817 607.84,570.52 812.94,779.5315 173.12,177.7305 568.75,633.7925 686.76,772.7775 h 352.62 C 6259.05,532.148 5617.8,-29.8398 5529.64,-119.063 c -101.3,-100.242 -636.63,-556.3 -768.86,-678.933 L 3610.14,-1871.14 c 0,0 410.21,305.34 556.66,382.48 146.45,77.13 803.7,559.851 935.58,671.113 131.87,111.262 621.7,562.344 831.78,768.5118 177.73,173.1092 579.41,622.0622 704.18,761.7582 h 236.02 c 28.09,0 51.19,17.062 51.19,38.035 v 33.769 c 0,20.973 -23.1,38.036 -51.19,38.036"
         style="fill:#000000;fill-opacity:1;fill-rule:nonzero;stroke:none"
         transform="matrix(0.13333333,0,0,-0.13333333,0,1056)" />
    </g>
  </g>
</svg>
