<?xml version="1.0" encoding="UTF-8" standalone="no"?>
<!-- Created with Inkscape (http://www.inkscape.org/) -->

<svg
   version="1.1"
   id="svg1"
   width="816"
   height="1056"
   viewBox="0 0 816 1056"
   sodipodi:docname="texturelabs_vector_267.pdf"
   xmlns:inkscape="http://www.inkscape.org/namespaces/inkscape"
   xmlns:sodipodi="http://sodipodi.sourceforge.net/DTD/sodipodi-0.dtd"
   xmlns="http://www.w3.org/2000/svg"
   xmlns:svg="http://www.w3.org/2000/svg">
  <defs
     id="defs1" />
  <sodipodi:namedview
     id="namedview1"
     pagecolor="#ffffff"
     bordercolor="#000000"
     borderopacity="0.25"
     inkscape:showpageshadow="2"
     inkscape:pageopacity="0.0"
     inkscape:pagecheckerboard="0"
     inkscape:deskcolor="#d1d1d1">
    <inkscape:page
       x="0"
       y="0"
       inkscape:label="1"
       id="page1"
       width="816"
       height="1056"
       margin="0"
       bleed="0" />
  </sodipodi:namedview>
  <g
     id="g1"
     inkscape:groupmode="layer"
     inkscape:label="1">
    <g
       id="group-R5">
      <path
         id="path2"
         d="m 5318.02,672.977 c 0,0 -1978.1,2740.313 -4421.997,2740.313 -2443.893,0 -4421.993,-2740.313 -4421.993,-2740.313 0,0 1978.1,-2740.307 4421.993,-2740.307 2443.897,0 4421.997,2740.307 4421.997,2740.307 z M 1894.15,2336.52 c 0,-24.2 0,-48.39 6.05,-78.64 6.05,-30.25 6.05,-54.45 6.05,-78.64 l 6.05,-78.64 c 6.05,-54.45 6.05,-102.84 0,-157.28 0,-12.1 0,-24.2 -6.05,-36.3 0,-12.1 -6.05,-24.2 -6.05,-36.29 0,-6.05 0,-12.1 -6.05,-18.15 18.15,18.15 36.3,42.34 48.39,66.54 24.2,36.3 42.35,72.59 60.5,108.89 18.14,36.29 42.34,72.59 60.49,108.88 18.15,36.3 48.39,66.54 78.64,96.79 30.24,30.25 72.59,54.45 114.94,66.54 24.19,6.05 54.44,12.1 78.64,12.1 30.24,0 66.54,0 96.78,-6.05 -48.39,6.05 -96.78,-12.1 -139.13,-42.34 -30.25,-30.25 -54.44,-66.54 -66.54,-108.89 -6.05,-24.2 -12.1,-48.39 -18.15,-72.59 0,-12.1 -6.05,-24.2 -6.05,-36.3 0,-12.1 0,-24.19 -6.05,-36.29 l -6.05,-78.64 c 0,-12.1 0,-24.2 -6.04,-42.34 -6.06,-18.15 0,-24.2 -6.06,-42.35 -6.05,-24.2 -6.05,-54.44 -12.09,-78.64 -6.05,-24.2 -12.1,-48.39 -18.15,-72.59 -6.05,-24.2 -12.1,-30.25 -18.15,-48.4 12.1,12.1 24.2,18.15 30.25,30.25 30.24,30.25 60.49,60.49 84.69,96.79 24.19,36.29 54.44,66.54 84.69,96.79 30.24,30.24 60.49,60.49 96.78,78.64 36.3,24.19 84.69,36.29 127.04,42.34 24.19,6.05 54.44,6.05 78.64,0 30.24,-6.05 66.54,-12.1 96.79,-24.19 -48.4,12.09 -96.79,6.04 -145.18,-12.11 -36.3,-24.19 -66.55,-54.44 -84.7,-90.73 -12.09,-18.15 -18.14,-42.35 -30.24,-66.54 -6.05,-12.1 -12.1,-24.2 -12.1,-36.3 l -12.1,-36.3 c -6.05,-24.19 -18.15,-48.39 -24.2,-78.64 l -12.09,-36.29 c -6.05,-12.1 -12.1,-24.2 -12.1,-36.3 -12.1,-24.19 -18.15,-48.39 -30.25,-72.59 -12.1,-24.19 -24.2,-48.39 -36.29,-72.59 -12.1,-24.2 -24.2,-42.34 -36.3,-60.49 l -12.1,-18.15 c 24.2,12.1 48.4,24.2 72.59,42.35 36.3,24.19 72.59,48.39 102.84,72.59 36.3,24.2 66.54,54.44 102.84,78.64 36.29,24.2 72.59,42.34 108.88,60.49 18.15,6.05 42.35,12.1 60.5,12.1 24.19,0 48.39,0 72.59,0 24.19,-6.05 54.44,-12.1 78.64,-18.15 12.1,-6.05 30.24,-12.1 42.34,-18.15 6.05,-6.05 12.1,-6.05 24.2,-12.09 6.05,-6.06 18.15,-6.06 24.2,-12.11 -12.1,6.05 -24.2,12.11 -42.35,18.15 -12.1,6.05 -24.19,6.05 -36.29,6.05 -24.2,0 -42.35,0 -66.55,-6.05 -42.34,-12.1 -78.64,-36.29 -102.83,-72.59 -6.05,-12.09 -12.1,-18.15 -24.2,-30.24 -12.1,-12.1 -12.1,-18.15 -24.2,-30.25 -12.09,-18.15 -30.24,-42.34 -42.34,-66.54 l -18.15,-36.3 c -6.05,-12.09 -12.1,-24.19 -18.15,-36.29 -12.09,-24.2 -30.24,-48.4 -42.34,-72.59 -12.1,-24.2 -30.25,-48.4 -42.34,-66.55 -12.11,-18.14 -30.25,-42.34 -48.4,-60.49 -18.15,-18.15 -24.2,-24.19 -36.3,-36.29 12.1,6.05 30.25,12.1 42.35,12.1 36.3,12.1 78.64,30.24 114.94,48.39 36.29,18.15 72.59,36.29 114.93,54.44 36.3,18.15 78.64,30.25 120.98,36.3 24.2,0 42.35,0 66.55,0 24.2,0 48.39,-6.05 66.54,-12.1 24.19,-6.05 48.39,-18.15 72.59,-36.29 12.1,-6.06 24.19,-18.15 36.3,-24.2 l 18.14,-18.15 18.15,-18.15 c -12.1,6.05 -24.2,18.15 -36.29,24.2 -12.1,6.05 -24.2,12.1 -36.3,12.1 -24.2,6.05 -42.34,12.1 -66.54,6.05 -42.35,-6.05 -84.69,-24.2 -114.94,-48.4 -12.09,-6.04 -18.15,-12.09 -24.2,-24.19 l -24.19,-24.2 c -18.15,-18.15 -36.3,-36.29 -54.44,-54.443 l -24.2,-30.246 -24.2,-30.246 -54.44,-60.493 c -18.15,-18.148 -36.3,-36.297 -54.44,-54.445 -18.15,-18.148 -42.35,-36.297 -60.5,-48.394 -24.2,-18.145 -48.39,-36.293 -78.64,-48.395 24.2,0 54.44,0 78.64,6.051 42.35,6.051 78.64,18.148 120.99,24.199 42.34,12.098 84.69,18.145 120.98,30.242 42.35,6.051 84.69,12.102 127.04,6.051 42.34,-6.051 90.74,-18.148 127.03,-42.344 24.2,-12.097 42.34,-30.246 60.49,-48.394 6.05,-6.051 12.1,-12.098 18.15,-18.149 6.05,-6.051 12.1,-12.097 18.15,-18.148 6.05,-6.047 18.15,-24.196 30.24,-42.344 -30.24,36.297 -72.59,66.543 -120.98,72.59 -18.15,0 -42.34,0 -60.49,-6.047 -12.1,0 -18.15,-6.051 -30.25,-6.051 l -30.24,-12.097 c -42.35,-24.2 -84.7,-48.395 -127.04,-78.641 -24.2,-18.148 -42.34,-30.246 -66.54,-48.395 l -36.3,-24.195 -36.29,-24.199 c -24.2,-12.098 -48.4,-30.246 -66.54,-42.344 l -36.3,-18.148 -36.3,-18.149 c -18.14,-6.047 -30.24,-12.097 -48.39,-18.148 12.1,0 30.25,0 42.35,-6.047 42.34,0 84.68,0 127.03,0 42.35,0 84.69,6.047 127.03,0 42.35,0 78.64,-6.051 120.99,-18.148 42.34,-12.098 84.69,-36.297 114.94,-66.543 18.14,-18.149 36.29,-36.293 54.44,-60.493 6.05,-6.047 6.05,-12.097 12.09,-18.148 l 12.11,-18.149 c 6.04,-12.097 12.09,-30.246 18.14,-48.39 -24.19,42.344 -60.49,78.64 -108.88,96.785 -18.15,6.051 -42.35,12.098 -60.5,12.098 -12.1,0 -24.19,0 -30.24,0 -12.1,0 -24.2,-6.047 -36.3,-6.047 -48.39,-12.098 -96.79,-30.246 -139.13,-48.395 l -72.59,-30.246 -36.3,-18.148 -36.29,-18.149 c -24.2,-12.097 -48.4,-18.148 -72.59,-30.246 l -36.3,-12.097 -36.29,-12.0981 c -24.2,-6.0508 -48.4,-12.0977 -72.59,-12.0977 h -24.2 c 24.2,-12.1015 48.39,-18.1484 78.64,-24.1992 42.34,-12.0977 78.64,-18.1484 120.98,-24.1953 42.35,-6.0508 84.69,-12.0977 127.04,-24.1992 42.34,-6.04691 78.64,-24.1953 114.93,-42.3438 42.35,-24.1953 72.6,-54.4414 96.79,-90.7387 18.15,-24.199 30.25,-48.394 36.3,-72.589 6.05,-12.098 12.1,-30.247 12.1,-42.344 0,-6.051 6.05,-18.149 6.05,-24.199 0,-6.047 0,-18.149 6.04,-24.196 l -6.04,18.149 c 0,6.047 -6.05,12.097 -6.05,18.144 -6.05,12.102 -12.1,24.199 -18.15,30.246 -12.1,18.149 -30.25,30.246 -48.4,42.348 -36.29,18.148 -78.64,30.246 -120.98,30.246 -12.1,0 -24.2,0 -36.3,0 h -18.14 -18.15 c -24.2,-6.051 -48.4,-6.051 -72.59,-12.098 l -36.3,-6.05 -18.15,-6.051 -18.15,-6.047 c -24.19,-6.051 -54.44,-12.098 -78.64,-12.098 -24.19,0 -60.49,-12.097 -90.73,-12.097 -30.25,0 -54.45,-6.051 -78.65,-6.051 -18.14,0 -36.29,0 -54.44,0 12.1,-6.051 24.2,-18.149 42.35,-24.199 36.29,-18.149 78.64,-36.293 114.93,-48.395 42.34,-18.144 78.64,-30.246 114.94,-48.39 36.29,-18.149 72.59,-36.297 108.88,-66.543 36.3,-30.247 60.5,-66.543 78.65,-108.887 12.09,-24.195 18.14,-48.395 24.19,-78.641 0,-12.097 6.05,-30.246 6.05,-48.394 0,-18.149 0,-18.149 0,-24.196 0,-6.05 0,-18.148 0,-24.199 0,6.051 0,12.102 0,24.199 0,6.047 0,12.098 -6.05,18.149 0,12.097 -6.05,24.195 -12.1,36.293 -12.09,18.148 -24.19,36.297 -36.29,54.445 -30.25,30.246 -72.59,48.395 -114.94,54.442 -12.09,0 -24.2,6.05 -36.29,6.05 h -18.15 -18.15 c -24.2,0 -48.4,0 -78.64,0 h -78.64 -78.64 c -24.2,0 -54.44,0 -78.64,6.047 -24.2,6.051 -48.39,6.051 -78.64,12.102 -30.25,6.047 -60.49,12.097 -90.74,24.195 18.15,-18.148 36.29,-36.297 60.49,-54.441 30.25,-24.2 66.54,-48.399 102.84,-72.594 36.3,-24.195 72.59,-48.395 102.84,-72.59 36.29,-24.195 60.49,-60.492 90.73,-96.789 30.25,-36.293 48.4,-78.641 54.45,-120.984 12.1,-60.493 6.05,-120.985 -12.1,-175.426 6.05,48.39 0,96.785 -30.24,139.133 -24.2,36.293 -60.5,60.492 -102.84,78.636 -24.2,12.102 -42.35,18.149 -66.54,24.2 l -36.3,12.097 -36.29,12.098 -78.64,18.148 -18.15,6.051 -18.15,6.047 -42.34,12.102 c -24.2,6.046 -48.4,12.097 -78.65,18.144 -30.24,6.051 -48.39,18.149 -72.59,24.199 -24.19,6.047 -30.24,12.098 -48.39,24.196 6.05,-12.098 18.15,-24.196 24.2,-36.293 24.19,-30.246 54.44,-66.543 84.69,-96.789 30.24,-30.247 60.49,-60.493 84.68,-90.739 30.25,-30.246 54.45,-66.543 72.59,-102.836 18.15,-42.344 30.25,-84.694 30.25,-127.034 0,-60.49 -18.14,-120.99 -48.39,-169.38 18.14,48.39 18.14,96.79 0,145.18 -18.15,36.3 -48.4,72.59 -84.69,96.79 -18.15,12.1 -42.35,24.2 -60.49,36.3 l -36.3,18.144 -36.29,18.149 -72.6,30.246 -18.15,6.047 -18.14,6.051 -36.3,18.144 c -24.19,12.102 -48.39,24.199 -72.59,36.297 -24.19,12.098 -36.29,6.051 -60.49,24.199 -24.19,18.149 -48.39,36.293 -72.59,60.492 6.05,-24.199 18.15,-54.445 30.25,-78.64 18.15,-36.297 36.29,-72.59 60.49,-108.887 24.19,-36.292 48.39,-72.592 66.54,-108.882 18.15,-36.3 36.3,-72.59 48.39,-114.94 12.1,-42.35 12.1,-90.74 0,-133.08 -6.04,-24.2 -18.15,-54.45 -30.24,-72.59 -6.05,-12.1 -12.1,-24.2 -24.2,-42.35 -12.1,-18.15 -18.15,-24.2 -30.24,-42.35 30.24,42.35 36.29,90.75 30.24,139.14 -12.1,42.34 -30.24,78.64 -60.49,108.88 -36.3,36.3 -72.59,66.55 -114.94,96.79 l -30.24,24.2 -30.25,24.2 c -24.2,18.15 -42.34,30.24 -66.54,48.39 l -18.15,12.1 -18.15,12.1 c -12.09,6.05 -18.14,18.15 -30.24,24.197 -18.15,18.144 -36.3,36.293 -54.45,54.441 -18.14,18.149 -24.19,24.195 -36.29,42.344 0,-12.098 6.05,-30.246 12.1,-42.344 12.09,-42.344 24.19,-78.638 42.34,-120.988 12.1,-42.34 30.25,-78.64 42.34,-120.98 12.11,-36.3 18.15,-78.64 24.2,-120.99 0,-42.34 -6.05,-90.73 -24.2,-133.08 -12.09,-24.2 -24.19,-48.4 -42.34,-66.54 -12.1,-12.1 -18.15,-24.2 -30.25,-36.3 l -36.29,-36.29 c 36.29,36.29 60.49,78.64 60.49,133.08 0,42.35 -12.1,84.69 -36.29,120.99 -24.2,42.34 -54.45,78.64 -90.74,114.93 -6.05,12.1 -18.15,18.15 -24.201,30.25 l -24.195,30.24 -54.445,60.5 -12.098,18.15 -24.195,24.19 c -6.051,12.1 -18.149,18.15 -24.199,30.25 -18.149,18.147 -30.247,42.342 -42.344,60.49 -18.149,24.196 -30.246,54.442 -42.344,84.688 0,-30.246 0,-54.441 0,-84.688 0,-42.343 6.051,-84.69 12.098,-127.03 6.051,-42.35 12.097,-84.7 18.148,-127.04 6.051,-42.34 0,-84.69 -6.051,-127.03 -6.046,-42.35 -24.195,-84.69 -54.441,-120.99 -18.148,-24.19 -36.297,-42.34 -54.441,-60.49 -24.2,-18.15 -54.446,-36.29 -84.692,-54.44 42.344,24.19 72.59,66.54 84.692,114.93 6.046,42.35 6.046,84.69 -12.098,127.04 -6.051,24.19 -18.149,42.34 -30.25,66.54 l -18.149,36.29 c -6.046,12.1 -12.097,24.2 -18.144,36.3 l -36.297,72.59 -18.148,36.3 c -6.047,12.09 -12.098,24.19 -18.149,36.29 -12.097,24.2 -24.195,48.397 -36.293,72.592 0,6.047 -6.051,12.098 -6.051,18.148 l -6.046,18.149 c -6.051,12.098 -12.102,24.195 -12.102,36.293 0,12.098 -12.098,30.246 -12.098,48.394 0,-12.097 -6.047,-30.246 -6.047,-42.343 -6.05,-42.344 -12.097,-84.692 -12.097,-127.033 0,-42.35 -6.051,-84.69 -12.102,-127.04 -6.047,-42.34 -12.097,-84.69 -30.246,-120.98 -18.148,-42.35 -42.344,-78.64 -78.64,-108.89 -18.149,-18.14 -42.344,-30.24 -66.54,-48.39 -30.246,-12.1 -60.492,-24.2 -90.742,-36.3 48.399,18.15 84.692,48.4 108.891,96.79 18.144,42.35 24.195,84.69 12.098,127.03 -6.051,24.2 -6.051,48.4 -12.098,72.59 0,12.11 -6.051,24.2 -12.102,36.3 -6.047,12.1 -6.047,24.2 -12.097,36.3 -6.047,24.19 -18.149,48.39 -24.196,78.64 l -12.097,36.291 c -6.051,12.098 -6.051,24.199 -12.102,42.344 -6.047,24.199 -12.097,54.445 -18.144,78.641 0,6.05 0,12.097 -6.051,18.148 l -6.051,18.148 c 0,12.098 -6.047,24.2 -6.047,36.297 -6.051,24.196 -6.051,48.395 -6.051,72.59 0,6.051 0,12.098 0,18.149 -12.097,-24.2 -24.195,-48.395 -36.293,-72.59 -18.148,-36.297 -30.2457,-78.641 -42.3472,-120.988 -12.0977,-42.344 -24.1953,-78.637 -36.293,-120.98 -12.0976,-42.35 -30.2461,-78.65 -54.4453,-108.89 -12.0977,-18.15 -24.1953,-36.29 -42.3438,-48.4 -18.1484,-18.14 -36.2968,-30.24 -54.4417,-42.34 -24.199,-12.1 -48.394,-24.2 -72.593,-30.25 -12.098,-6.04 -30.247,-6.04 -48.391,-12.09 -18.148,0 -36.297,-6.05 -48.395,-6.05 24.196,6.05 54.442,12.1 72.59,24.19 18.149,12.1 36.293,24.2 48.395,42.35 24.195,36.3 36.293,78.64 42.344,120.98 0,24.2 0,48.4 0,72.597 0,24.195 -6.051,48.39 -6.051,78.636 0,30.247 -6.047,54.446 -6.047,78.641 0,24.199 -6.051,54.445 -6.051,78.641 0,24.199 0,54.445 -6.047,78.64 0,12.098 0,24.2 0,36.297 0,12.098 0,12.098 0,18.149 0,6.046 0,12.097 0,18.144 0,18.149 0,36.297 6.047,54.445 l -24.195,-36.296 c -24.199,-36.293 -42.348,-72.59 -60.492,-108.887 -18.149,-36.293 -36.297,-72.59 -60.493,-108.887 -18.148,-36.293 -48.394,-66.539 -78.64,-96.785 -30.246,-30.246 -72.594,-54.445 -114.938,-66.543 -24.195,-6.051 -54.441,-12.098 -78.64,-12.098 -12.098,0 -30.246,0 -48.395,0 l -48.394,6.047 c 24.199,0 54.445,0 78.64,12.102 24.199,6.047 42.348,18.148 60.492,30.246 30.247,30.246 54.446,66.539 66.543,108.887 6.051,24.195 12.098,48.394 12.098,72.589 6.051,24.196 6.051,48.395 12.098,78.641 6.05,30.246 6.05,54.441 6.05,78.641 0,24.195 6.047,54.441 12.098,78.64 6.051,24.196 6.051,54.442 12.098,78.641 0,12.098 6.051,24.195 6.051,36.293 0,12.098 0,12.098 6.046,18.148 l 6.051,18.149 c 6.047,30.246 18.149,60.492 36.297,84.687 -24.199,-18.144 -42.348,-36.293 -60.492,-54.441 -30.246,-30.246 -60.492,-60.492 -84.691,-96.789 -24.196,-30.246 -54.446,-66.539 -84.692,-96.785 -30.242,-30.246 -60.488,-54.446 -96.785,-78.641 -36.297,-24.199 -84.691,-36.297 -127.035,-42.344 -24.196,0 -54.442,0 -78.641,6.047 -30.246,6.051 -66.539,12.098 -96.789,24.199 48.395,-12.101 96.789,-6.05 145.184,12.098 36.297,24.195 66.543,54.441 84.691,90.738 12.098,24.196 24.195,42.344 30.246,66.539 12.098,24.2 18.149,48.395 24.196,72.594 6.05,24.195 18.148,48.395 24.199,72.59 6.047,24.195 18.144,54.441 24.195,78.641 18.148,48.394 36.297,96.789 60.492,145.1793 6.051,12.1016 12.098,18.1484 18.149,30.2461 l 6.05,12.1016 -36.296,-0.0039 c -36.297,-24.1954 -66.543,-48.3946 -102.836,-72.5901 -36.297,-24.195 -66.543,-54.441 -102.84,-78.64 -36.293,-24.196 -72.59,-48.395 -108.887,-60.493 -42.344,-12.097 -84.687,-18.148 -133.086,-12.097 -24.19,6.047 -54.44,12.097 -78.64,18.148 -30.24,12.098 -60.49,30.246 -84.68,48.395 42.34,-24.2 96.78,-30.246 145.18,-18.149 42.339,12.098 78.636,42.344 102.832,72.59 18.148,18.149 30.246,42.344 42.347,60.4923 12.098,18.1484 30.246,42.3438 42.344,66.543 l 42.344,72.5898 c 12.097,24.1953 30.246,48.3949 42.343,72.5899 24.2,42.344 60.497,84.691 90.743,127.035 6.047,12.098 18.144,18.149 24.195,24.195 6.051,6.051 18.148,18.149 24.195,24.2 l 18.149,12.097 c -24.196,-6.05 -54.442,-12.097 -78.641,-24.199 -42.344,-12.098 -78.637,-30.246 -114.934,-48.391 -36.296,-18.148 -78.64,-36.296 -114.937,-54.445 -36.293,-18.148 -78.641,-30.246 -120.98,-36.297 -24.2,0 -42.35,0 -66.54,0 -24.2,0 -42.35,0 -66.55,6.051 -24.2,12.098 -48.39,18.149 -72.59,36.297 -12.1,6.047 -24.2,18.144 -36.29,24.195 -12.1,12.098 -24.2,24.199 -36.3,36.297 24.2,-18.148 42.35,-30.246 72.59,-36.297 24.2,-6.051 42.35,-6.051 66.54,-6.051 42.35,6.051 84.69,24.2 114.94,48.395 36.29,30.246 72.59,66.543 108.887,102.84 l 54.441,60.492 54.446,60.492 c 12.097,12.098 18.144,18.149 30.246,30.246 12.097,12.098 18.148,18.149 30.246,24.196 18.148,18.148 42.344,36.297 60.492,48.394 12.098,12.098 30.246,18.149 42.344,30.246 l -42.344,-6.047 c -42.344,-6.05 -84.691,-18.148 -120.984,-24.199 -36.297,-6.047 -78.641,-18.148 -120.985,-30.246 -42.349,-6.051 -84.689,-12.098 -127.039,-12.098 -18.14,0 -42.34,6.047 -60.49,12.098 -24.2,6.051 -42.34,18.149 -60.49,30.246 -24.2,12.098 -42.35,30.246 -60.49,48.395 -12.1,12.097 -24.2,24.199 -30.25,36.297 -12.1,12.097 -18.15,24.195 -30.24,42.343 18.14,-18.148 36.29,-36.297 60.49,-48.394 18.14,-12.098 36.29,-18.149 60.49,-18.149 42.34,-6.047 84.69,6.051 120.98,24.2 42.35,24.195 84.69,48.39 127.039,78.636 l 66.539,48.395 66.543,48.394 36.293,24.2 36.297,18.144 c 24.199,12.102 48.395,24.199 66.543,36.297 30.246,12.098 60.492,24.199 90.738,30.246 -24.199,6.051 -54.445,6.051 -78.64,12.102 -42.344,0 -84.692,0 -127.035,0 -42.344,0 -84.688,-6.051 -127.032,0 -42.347,0 -84.695,6.047 -120.985,18.144 -42.35,12.102 -84.69,36.295 -114.94,66.545 -6.05,6.05 -18.14,18.15 -24.2,30.24 l -12.09,18.15 c -6.05,6.05 -6.05,12.1 -12.1,18.15 -18.15,30.25 -30.25,54.44 -42.34,90.74 24.19,-42.35 60.49,-78.64 108.88,-96.79 42.35,-12.1 84.69,-12.1 127.03,0 24.2,6.05 48.398,12.1 66.546,18.15 l 36.297,12.1 36.293,12.09 c 48.395,18.15 96.789,42.35 151.231,60.5 24.199,12.1 48.394,18.14 72.593,30.24 24.196,12.1 48.395,12.1 72.59,18.15 12.098,6.05 24.195,6.05 36.293,6.05 h 12.102 l -42.344,12.1 c -42.348,12.1 -78.641,18.15 -120.988,24.19 -42.344,6.06 -84.688,12.11 -127.032,24.2 -42.347,6.05 -78.64,24.2 -114.937,42.35 -42.344,24.2 -72.594,54.44 -96.784,90.74 -6.05,12.09 -12.1,18.14 -18.15,30.24 l -12.1,18.15 -6.05,18.15 c -12.1,30.24 -18.15,60.49 -24.2,96.79 6.05,-48.4 36.3,-90.74 72.6,-120.99 36.289,-18.15 78.633,-30.25 127.028,-30.25 24.199,0 48.394,6.05 72.593,6.05 l 36.293,6.05 36.297,6.05 c 54.442,12.1 102.836,24.2 157.281,30.25 24.196,6.05 54.442,12.1 78.637,12.1 24.199,0 54.446,6.05 78.645,0 12.097,0 24.195,0 36.293,0 h 36.297 18.144 c -24.195,18.14 -42.344,30.24 -66.539,42.34 -36.297,18.15 -78.641,36.3 -114.937,54.44 l -60.493,24.2 c -18.144,6.05 -36.293,18.15 -60.492,24.2 -36.293,18.15 -72.59,42.34 -102.836,66.54 -18.148,12.1 -30.246,30.25 -42.344,48.4 -12.097,18.14 -24.199,36.29 -36.296,60.49 -24.196,54.44 -30.246,114.93 -30.246,175.42 0,-24.19 6.05,-54.44 18.148,-78.64 6.051,-18.14 24.195,-36.29 36.297,-54.44 18.144,-12.09 30.246,-24.2 54.441,-36.29 18.149,-6.05 42.344,-12.1 60.492,-18.15 48.395,-6.05 96.789,-12.1 145.18,-12.1 h 139.137 18.144 c 24.2,0 54.446,0 78.641,-6.05 l 36.297,-6.05 36.297,-6.05 c 18.144,-6.05 36.293,-6.05 48.39,-12.1 -12.097,12.1 -24.195,18.15 -36.293,30.25 -30.246,24.2 -60.492,48.39 -96.789,66.54 l -54.441,36.3 c -18.149,12.1 -36.297,24.19 -48.395,36.29 -36.296,24.2 -66.543,54.45 -90.738,84.69 -12.098,18.15 -24.199,36.3 -36.297,54.45 -12.097,18.14 -18.148,42.34 -18.148,66.54 -12.098,60.49 -6.047,120.98 6.051,175.42 -6.051,-24.19 -6.051,-54.44 0,-78.64 6.046,-24.19 12.097,-42.34 24.195,-60.49 12.098,-18.14 24.199,-30.24 42.344,-42.34 18.148,-12.1 36.297,-24.2 60.496,-30.25 48.39,-18.15 90.734,-30.24 139.133,-42.34 l 78.636,-18.15 42.348,-6.05 18.144,-6.05 18.149,-6.05 c 24.199,-6.05 54.4452,-12.1 78.6405,-18.15 l 36.2969,-12.1 36.296881,-12.09 C 24.9336,2009.86 43.082,2003.81 67.2773,1991.71 l 18.1485,-12.1 c -12.0977,24.2 -30.2461,48.4 -48.3945,66.54 -24.1954,30.25 -54.4415,66.55 -84.6876,96.79 -30.246,30.25 -60.4917,60.49 -84.6917,90.74 -30.246,30.25 -48.394,66.54 -72.59,102.84 -18.148,42.34 -30.246,84.69 -30.246,133.08 0,24.2 6.047,54.44 12.098,78.64 6.051,12.1 12.098,30.25 12.098,42.35 0,12.09 6.05,12.09 12.097,24.19 l 12.102,24.2 c -12.102,-24.2 -12.102,-54.44 -12.102,-78.64 0,-24.2 6.051,-42.34 12.102,-66.54 18.144,-36.3 48.391,-72.59 84.687,-96.79 18.1489,-12.1 42.3442,-24.2 60.4926,-36.3 24.1992,-12.09 48.39456,-24.19 66.543,-36.29 l 36.293,-18.15 18.1484,-6.05 18.1484,-6.04 72.5896,-36.3 36.297,-18.15 36.293,-18.15 c 24.199,-12.1 42.348,-24.19 66.543,-42.34 l 12.098,-12.1 12.097,-12.1 12.102,-12.1 -18.148,42.35 c -18.149,36.29 -42.344,72.59 -66.543,108.89 -24.196,36.29 -42.344,72.59 -66.539,108.88 -18.149,36.3 -36.297,72.59 -48.399,114.94 -12.098,42.34 -12.098,90.73 0,133.08 6.051,24.2 18.149,54.44 30.25,72.59 6.047,12.1 12.098,24.2 24.195,42.35 l 12.098,18.14 18.148,24.2 c -12.097,-24.2 -24.195,-48.4 -30.246,-72.59 -6.046,-24.2 -6.046,-42.34 0,-66.54 12.098,-42.35 30.246,-78.64 60.493,-108.89 18.148,-18.15 36.296,-36.29 54.445,-48.39 18.144,-18.15 42.344,-30.25 60.492,-48.4 l 30.246,-24.19 18.149,-12.1 18.144,-12.1 66.543,-48.39 30.246,-24.2 30.246,-24.2 c 18.149,-18.15 36.297,-36.3 54.446,-54.44 l 12.097,-12.1 12.098,-12.1 c 6.051,-6.05 12.098,-18.15 24.195,-30.25 l 12.102,-18.14 c -6.051,24.2 -6.051,54.44 -12.102,78.64 -12.097,42.34 -24.195,78.64 -36.293,120.98 l -24.195,60.49 c -6.051,18.15 -12.102,42.35 -18.148,60.5 -12.102,36.29 -18.149,78.64 -18.149,120.98 0,42.35 6.047,90.74 30.246,133.09 12.098,24.19 24.195,48.39 42.344,66.54 18.148,24.19 42.344,48.39 66.543,66.54 -18.149,-18.15 -36.297,-42.35 -48.395,-66.54 -6.05,-18.15 -12.097,-42.35 -12.097,-66.54 0,-42.35 12.097,-84.7 36.293,-120.99 24.199,-42.35 54.445,-78.64 90.738,-120.98 18.148,-18.15 36.297,-42.35 54.445,-60.5 18.149,-18.14 36.293,-42.34 54.442,-60.49 18.148,-18.15 36.297,-42.35 48.394,-60.49 6.047,-12.1 18.149,-18.15 24.196,-30.25 l 12.101,-18.14 12.098,-18.15 c 12.097,-12.1 18.148,-30.25 24.198,-48.4 0,12.1 0,30.25 0,42.35 0,42.34 -6.05,84.69 -12.101,127.03 l -12.097,60.49 c 0,18.15 -6.051,42.35 -6.051,60.5 -6.047,42.34 0,84.68 6.051,127.03 6.051,18.15 12.097,42.35 18.148,60.49 6.05,24.2 18.15,42.35 36.29,60.5 18.15,24.19 36.3,42.34 54.45,60.49 24.19,18.15 54.44,36.29 84.69,54.44 -24.2,-12.1 -42.35,-36.29 -60.5,-54.44 -12.09,-18.15 -24.19,-36.3 -24.19,-60.49 -6.05,-42.35 -6.05,-84.7 12.1,-127.04 18.14,-48.39 36.29,-90.74 66.54,-133.08 l 42.34,-72.6 c 12.1,-24.19 24.2,-48.39 42.35,-72.59 12.09,-24.19 24.2,-48.39 36.29,-72.58 6.05,-12.1 12.1,-24.2 12.1,-36.3 l 6.05,-18.15 6.05,-18.14 c 12.1,-30.25 18.15,-60.5 24.19,-90.74 6.05,24.19 12.11,54.44 18.15,78.63 6.05,42.35 12.1,84.7 12.1,127.04 0,42.34 6.05,84.69 12.1,127.03 6.05,42.35 12.1,84.69 30.25,120.99 18.15,42.34 42.34,78.64 78.64,108.89 12.1,6.05 18.15,18.14 30.24,24.19 12.1,6.05 24.2,12.1 36.3,18.15 30.24,12.1 60.49,24.2 90.74,36.3 -48.4,-18.15 -84.69,-48.4 -108.89,-96.79 -18.15,-42.35 -24.2,-84.69 -12.1,-127.04 0,-24.19 6.05,-48.39 12.1,-72.59 6.05,-24.19 12.1,-48.39 18.15,-72.59 6.05,-24.2 18.15,-48.39 24.2,-78.64 6.04,-30.24 18.15,-54.44 24.19,-78.64 12.1,-48.39 24.2,-102.84 30.25,-151.23 0,-12.1 0,-24.2 6.05,-36.3 0,-6.04 0,-12.09 0,-18.15 6.05,12.11 12.1,30.25 18.15,42.35 18.15,42.35 30.24,78.64 42.34,120.99 12.1,42.34 24.2,84.68 36.3,120.98 12.1,42.34 30.24,78.64 54.44,108.89 24.19,36.29 60.49,66.54 96.79,90.74 12.1,6.05 24.19,12.09 36.29,18.14 l 36.3,48.4 c 30.24,6.05 66.54,12.1 96.79,18.14 -48.4,-6.04 -96.79,-36.29 -127.04,-78.64 -24.19,-36.29 -36.29,-78.64 -42.34,-120.98 0,-24.2 0,-48.4 0,-66.54 z m -2522.537,-3599.3 c -471.843,235.92 -913.433,526.284 -1306.633,877.139 -375.05,320.6097 -725.91,677.512 -1046.52,1058.618 320.61,381.103 665.41,738.003 1046.52,1058.613 399.25,344.81 834.79,641.22 1306.633,877.14 151.235,72.59 302.465,133.09 459.742,187.53 C -1342.2,2203.43 -1814.04,775.813 -1221.21,-397.742 c 229.87,-453.692 598.874,-822.698 1052.565,-1052.568 -163.328,54.44 -314.558,114.93 -459.742,187.53 z m 4361.507,877.139 c -399.25,-344.808 -840.85,-641.219 -1312.69,-877.139 -151.23,-72.59 -302.46,-133.08 -459.74,-187.53 1173.56,592.826 1645.4,2020.451 1052.57,3194 -229.87,453.7 -598.88,828.75 -1052.57,1052.57 157.28,-54.44 308.51,-114.94 459.74,-187.53 471.84,-235.92 913.44,-526.28 1312.69,-877.14 C 4108.17,1404.93 4459.03,1054.08 4779.64,672.977 4459.03,291.871 4108.17,-65.0313 3733.12,-385.641 Z M 896.023,2082.45 c 780.357,0 1409.477,-629.12 1409.477,-1409.473 0,-780.356 -629.12,-1409.473 -1409.477,-1409.473 -780.351,0 -1409.472,629.117 -1409.472,1409.473 0,780.353 629.121,1409.473 1409.472,1409.473 z M -3743.75,781.863 l 114.94,163.328 c 48.4,66.539 96.79,127.039 120.99,157.279 -72.59,199.63 -278.27,229.87 -489.99,241.97 l -163.33,12.1 c -24.2,0 -54.45,0 -78.65,6.05 -24.19,6.05 -48.39,12.1 -72.59,18.15 -90.73,24.19 -163.32,96.78 -199.62,181.47 127.04,-447.64 647.27,-338.75 768.25,-780.347 z m 0,871.087 c 78.64,-42.34 151.23,-96.79 217.78,-157.28 66.54,-72.59 114.93,-163.33 133.08,-260.12 24.2,24.2 72.59,90.74 127.03,151.24 24.2,30.24 54.45,60.49 78.65,84.69 24.19,24.19 42.34,48.39 54.44,60.49 -24.2,90.74 -90.74,163.33 -175.43,205.67 -96.79,36.3 -193.58,66.54 -296.41,72.59 -102.84,12.1 -199.63,36.3 -296.42,66.54 -90.74,30.25 -157.28,108.89 -181.47,199.63 6.05,-102.84 48.39,-193.58 120.98,-266.17 66.54,-60.49 139.13,-114.93 217.77,-157.28 z m 411.35,447.65 c 78.64,-48.4 145.19,-108.89 205.68,-175.43 66.54,-72.59 102.83,-169.38 114.93,-266.17 24.2,24.2 78.64,84.69 139.13,139.14 60.5,54.44 114.94,114.93 139.14,139.13 -18.15,96.78 -78.64,181.48 -163.33,223.82 -42.35,24.2 -90.74,42.34 -133.08,54.44 -48.4,12.1 -102.84,24.2 -151.23,36.3 -102.84,18.15 -199.63,42.34 -290.37,84.69 -90.74,36.29 -151.23,114.93 -169.38,211.72 6.05,-241.97 157.28,-338.76 308.51,-447.64 z m 435.55,423.44 c 72.59,-54.44 139.13,-114.93 193.57,-181.47 60.49,-78.64 96.79,-175.43 96.79,-272.22 24.2,24.2 84.69,78.64 145.19,133.08 60.49,54.45 120.98,108.89 151.23,127.04 -12.11,90.74 -66.55,175.43 -151.23,223.82 -90.74,48.39 -181.48,90.74 -278.27,108.89 -96.79,24.2 -193.58,60.49 -290.36,102.84 -84.7,42.34 -145.19,127.03 -157.28,217.77 -6.06,-102.84 30.24,-199.63 90.73,-278.27 60.5,-66.54 127.04,-127.03 199.63,-181.48 z m 465.79,399.25 c 66.54,-60.49 127.03,-127.03 181.48,-199.62 54.44,-84.69 84.69,-181.48 78.64,-278.27 30.24,24.2 90.74,72.6 157.28,120.99 66.54,48.39 133.08,96.79 157.28,120.99 -6.05,96.78 -54.44,181.47 -133.08,235.91 -84.7,54.45 -175.43,102.84 -272.22,133.09 -96.79,30.25 -193.58,72.59 -278.27,120.98 -84.69,48.4 -133.08,139.14 -139.13,229.87 -12.1,-102.83 12.1,-199.62 66.54,-290.36 54.45,-66.54 114.94,-133.08 181.48,-193.58 z m 496.04,362.96 c 66.54,-60.49 120.98,-133.08 163.33,-211.73 48.39,-84.68 66.54,-187.52 60.49,-284.31 l 66.54,48.4 96.79,66.54 96.79,60.49 72.59,42.34 c 0,96.79 -42.35,187.53 -114.94,248.02 -78.64,60.5 -169.37,114.94 -260.12,151.23 -96.78,36.3 -187.52,84.69 -272.21,145.19 -78.64,54.44 -127.03,145.18 -120.99,241.97 -18.14,-96.79 -6.04,-205.68 42.35,-290.37 48.39,-84.69 102.84,-157.28 169.38,-217.77 z m 532.33,320.61 c 60.49,-66.54 108.89,-145.18 145.18,-223.82 36.3,-90.74 48.4,-193.58 30.25,-290.37 l 72.59,42.35 102.84,54.44 c 72.588,36.3 145.182,72.59 175.428,90.74 12.097,96.79 -18.149,187.53 -90.743,254.07 -72.585,72.59 -157.275,133.08 -248.015,181.48 -90.74,48.39 -175.43,102.83 -254.07,169.38 -72.59,60.49 -108.89,157.27 -96.79,254.06 -30.25,-96.79 -24.19,-205.67 12.1,-296.41 48.39,-90.74 96.79,-163.33 151.23,-235.92 z m 574.678,272.21 c 48.395,-72.59 90.739,-157.28 120.985,-241.96 30.25,-96.79 30.25,-193.58 0,-290.37 18.148,6.05 42.347,18.15 72.593,30.25 30.246,12.1 72.59,30.24 108.887,42.34 36.293,12.1 78.641,30.25 108.887,42.35 l 72.59,30.24 c 24.195,90.74 0,187.53 -54.446,266.17 -66.539,78.64 -139.132,151.23 -223.82,205.68 -84.687,54.44 -169.379,120.98 -241.969,193.57 -66.543,66.54 -90.738,169.38 -66.543,260.12 -24.195,-48.4 -36.297,-102.84 -42.343,-157.28 0,-48.39 6.046,-90.74 18.148,-139.14 30.246,-84.68 72.59,-163.33 127.031,-241.97 z m 604.926,205.68 c 42.344,-78.64 72.59,-163.33 90.738,-254.07 18.149,-96.79 0,-199.63 -36.297,-290.36 36.297,12.1 108.8872,30.24 193.5786,48.39 84.6874,18.15 157.2814,36.3 193.5744,42.34 36.297,90.74 30.246,187.53 -18.149,266.17 C 145.918,3987.96 79.375,4066.6 0.734375,4133.14 -77.9063,4199.68 -150.496,4278.32 -210.988,4356.96 c -60.492,78.65 -72.59,181.48 -30.246,266.17 -60.493,-84.69 -78.641,-193.58 -66.543,-296.41 18.148,-78.64 48.394,-163.33 84.691,-241.97 z m 695.664,-139.13 c 0,-96.79 -24.199,-193.58 -78.64,-278.27 36.292,6.05 114.933,12.1 193.574,24.2 78.64,12.1 163.332,12.1 199.625,12.1 48.394,78.64 54.445,181.48 24.199,266.16 -42.348,96.79 -96.789,181.48 -163.332,260.12 -66.539,78.64 -127.031,163.33 -181.477,254.07 -48.394,84.69 -42.343,187.53 12.098,272.21 -72.59,-78.64 -108.887,-175.42 -108.887,-284.31 6.051,-90.74 24.2,-181.48 54.446,-266.17 24.195,-84.68 42.343,-169.37 48.394,-260.11 z m 689.612,-254.07 c 42.35,0 78.64,-6.05 114.94,-12.1 l 78.64,-6.05 c 60.49,72.59 84.69,169.38 66.54,260.12 -24.2,102.84 -60.49,199.62 -114.93,284.31 -54.45,90.74 -102.84,181.48 -139.14,278.27 -36.29,90.74 -12.1,193.57 54.44,266.17 -84.69,-66.55 -139.13,-157.29 -151.23,-260.12 -6.05,-90.74 -6.05,-181.48 12.1,-266.17 12.1,-90.74 18.15,-181.48 6.05,-266.17 -6.05,-48.39 -18.15,-90.74 -36.3,-133.08 -12.09,-24.2 -24.19,-42.34 -36.29,-66.54 -12.1,-24.2 -30.248,-48.4 -48.397,-66.54 18.149,0 48.397,0 78.637,0 30.25,0 72.6,-6.05 114.94,-12.1 z m 562.58,-84.69 c 78.64,-18.15 157.28,-36.3 193.58,-48.4 72.59,60.5 108.88,157.29 102.83,248.02 -6.05,102.84 -36.29,205.68 -72.59,296.42 -42.34,96.78 -72.59,193.57 -90.73,296.41 -6.06,42.35 -6.06,90.74 6.04,133.08 18.15,48.4 42.35,90.74 84.69,120.99 -90.73,-54.45 -157.28,-133.08 -187.52,-235.92 -24.2,-84.69 -30.25,-175.43 -30.25,-266.17 0,-90.74 -12.1,-181.48 -36.3,-266.16 -12.09,-42.35 -36.29,-84.7 -60.49,-127.04 -30.24,-42.34 -66.54,-84.69 -102.83,-114.94 18.14,0 48.39,-6.04 78.64,-12.1 30.24,-6.04 78.64,-18.14 114.93,-24.19 z m 659.37,-205.68 72.59,-30.24 c 78.64,54.44 127.03,139.13 133.08,235.92 6.05,102.84 -6.05,205.67 -36.29,302.46 -24.2,102.84 -42.35,205.68 -48.4,308.51 -6.05,96.79 42.35,187.53 127.04,241.97 -96.79,-42.34 -169.38,-114.93 -217.78,-205.67 -36.29,-84.69 -54.44,-169.38 -66.54,-260.12 -12.09,-90.74 -36.29,-175.43 -72.59,-260.12 -42.34,-90.74 -108.89,-163.33 -193.57,-217.77 36.29,-12.1 108.88,-36.3 187.52,-66.54 48.4,-24.2 84.69,-36.29 114.94,-48.4 z m 314.56,-139.13 c 30.25,-12.1 66.54,-30.25 102.84,-54.44 l 102.83,-54.44 72.59,-36.3 c 84.69,48.4 139.14,127.03 157.28,217.77 12.1,102.84 12.1,199.63 0,302.47 -18.14,102.83 -18.14,205.67 -12.1,308.51 6.06,96.79 66.55,181.47 151.24,223.82 -96.79,-30.25 -181.48,-96.79 -235.92,-181.48 -42.35,-78.64 -78.64,-163.33 -96.79,-248.02 -24.2,-84.69 -54.44,-169.38 -96.79,-248.02 -54.44,-84.69 -127.03,-151.23 -217.77,-193.57 z m 502.09,-278.26 48.39,-30.25 54.44,-30.25 c 66.54,-42.34 133.09,-90.74 163.33,-108.88 84.69,36.29 151.23,114.93 175.43,205.67 24.19,96.79 36.3,199.63 30.25,302.46 -6.06,102.84 0,205.68 18.14,308.51 18.15,96.79 78.64,175.43 169.38,211.73 -102.83,-24.2 -187.52,-78.64 -248.02,-163.33 -48.39,-72.59 -90.74,-157.28 -120.98,-241.97 -30.25,-84.69 -72.59,-163.33 -120.99,-241.97 -60.49,-78.64 -139.13,-139.13 -235.92,-169.38 z m 411.34,-272.22 c 30.25,-18.15 96.79,-66.54 157.28,-114.93 l 90.74,-72.6 66.55,-48.39 c 90.73,30.24 157.28,102.84 187.52,193.58 30.25,96.79 48.4,199.62 54.44,296.41 6.05,54.44 6.05,108.88 12.11,157.28 6.04,48.39 18.14,96.79 30.24,145.18 24.2,90.74 96.79,163.33 187.53,193.58 -102.84,-12.1 -193.58,-66.54 -260.12,-139.14 -54.44,-72.59 -102.84,-145.18 -145.18,-229.87 -36.3,-84.69 -84.69,-157.28 -145.19,-229.87 -54.44,-72.59 -139.13,-127.03 -235.92,-151.23 z m 453.7,-350.86 c 54.44,-42.34 248.02,-211.72 296.41,-260.11 90.74,24.19 169.38,90.74 205.67,175.42 36.3,96.79 66.55,193.58 78.64,290.37 12.1,102.84 36.3,199.63 66.55,296.41 30.24,90.74 108.88,157.28 199.62,181.48 -102.83,-6.05 -193.58,-48.39 -266.17,-120.99 -60.49,-66.54 -114.93,-139.13 -163.32,-223.82 -42.35,-78.64 -96.79,-151.23 -157.28,-211.72 -72.59,-66.54 -163.33,-108.89 -260.12,-127.04 z m 695.66,-266.16 c -72.59,-66.54 -169.38,-102.84 -266.17,-114.94 12.1,-12.09 36.3,-30.24 60.5,-54.44 l 84.69,-84.69 c 60.49,-54.44 114.93,-114.94 139.13,-139.13 90.74,18.15 169.38,78.64 211.72,163.33 42.35,90.73 78.64,187.52 96.79,290.36 18.15,102.84 48.39,199.62 84.69,290.36 36.3,90.74 114.94,151.24 211.72,169.38 -241.97,-12.1 -344.8,-163.33 -447.64,-314.56 -54.44,-78.64 -108.88,-151.23 -175.43,-205.67 z m 133.08,-526.28 c 24.2,-24.2 78.64,-84.7 133.09,-145.19 24.2,-30.24 54.44,-60.49 78.64,-90.74 l 54.44,-60.49 c 90.74,12.1 175.43,66.54 223.82,151.23 48.4,90.74 90.74,181.48 114.94,284.31 24.2,96.79 60.49,193.58 108.88,284.32 42.35,84.69 127.04,145.18 223.83,151.23 -102.84,6.05 -199.63,-30.24 -278.27,-90.74 -72.59,-54.44 -133.08,-120.98 -187.53,-199.62 -127.03,-133.08 -241.96,-272.22 -471.84,-284.31 z m 852.95,-175.43 c -60.49,-66.55 -127.04,-127.04 -199.63,-181.48 -84.69,-54.45 -181.48,-78.64 -278.26,-78.64 24.19,-30.25 72.59,-90.74 120.98,-157.282 48.4,-66.543 96.79,-133.083 114.94,-157.282 211.72,12.102 290.36,205.674 375.05,399.254 l 18.15,36.29 6.05,18.15 6.05,12.1 6.05,12.1 6.05,18.15 c 0,6.05 6.05,12.09 6.05,18.14 l 12.09,36.3 c 18.15,48.39 42.35,90.74 66.55,133.08 24.2,36.3 54.44,72.59 96.79,96.79 42.34,24.2 90.73,42.35 139.13,42.35 -54.44,6.04 -108.89,6.04 -163.33,-6.06 -42.35,-12.09 -90.74,-30.24 -127.03,-54.44 -78.65,-54.44 -145.19,-120.98 -205.68,-187.52 z M 5535.79,564.09 5420.86,406.809 C 5372.46,340.266 5324.07,279.773 5299.88,249.527 5372.46,49.9023 5578.14,19.6563 5789.86,7.55859 l 163.33,-12.09765 c 24.2,0 54.45,0 78.64,-6.05074 24.2,-6.0469 48.4,-12.0977 66.55,-18.1485 90.73,-24.1953 163.32,-90.7387 199.62,-181.4767 -120.98,441.598 -641.22,332.711 -762.21,774.305 z m 0,-871.094 c -78.64,42.348 -151.23,96.789 -217.77,157.281 -66.54,72.5902 -114.93,163.3324 -133.08,260.118 -24.2,-24.1958 -72.59,-90.7387 -127.04,-151.2309 l -78.64,-84.6871 -54.44,-60.493 c 24.2,-90.742 90.74,-163.332 175.43,-205.675 96.79,-36.297 193.57,-66.543 296.41,-72.59 102.84,-12.102 199.63,-36.297 296.41,-66.543 90.74,-30.246 157.29,-108.887 181.48,-199.625 -6.05,102.836 -54.44,193.574 -120.98,266.168 -66.54,60.492 -139.14,114.933 -217.78,157.277 z m -411.34,-447.641 c -72.59,48.395 -145.18,108.887 -205.68,175.426 -66.54,72.59 -102.84,169.379 -114.93,266.168 -24.2,-24.195 -78.64,-84.687 -139.14,-139.133 -60.49,-54.445 -114.93,-114.933 -139.13,-139.132 18.15,-90.739 78.64,-169.379 163.33,-211.723 42.35,-24.199 90.74,-42.344 133.08,-54.445 48.4,-12.098 96.79,-24.196 151.23,-36.293 102.84,-18.149 199.63,-48.395 290.37,-84.692 90.74,-36.291 151.23,-114.931 169.38,-211.721 -6.05,229.87 -157.28,326.659 -308.51,435.545 z M 4688.9,-1178.09 c -72.59,54.44 -139.13,114.93 -193.58,187.524 -60.49,78.64 -96.78,175.429 -96.78,272.214 -24.2,-24.195 -84.69,-78.64 -145.18,-133.082 -60.5,-54.441 -120.99,-108.886 -151.23,-127.035 12.09,-96.781 66.53,-175.421 151.23,-223.821 90.73,-48.39 181.47,-90.74 278.26,-108.89 96.79,-24.19 193.58,-60.49 284.31,-102.83 84.7,-42.35 145.19,-127.04 157.28,-223.83 6.06,102.84 -30.24,199.63 -90.73,284.32 -54.44,60.49 -120.99,120.98 -193.58,175.43 z m -465.79,-399.25 c -66.54,60.49 -127.04,127.03 -181.48,199.62 -54.44,84.69 -84.69,181.48 -78.64,278.27 -24.2,-18.15 -90.74,-72.59 -157.28,-120.99 -66.54,-48.39 -127.03,-96.79 -157.28,-120.98 6.05,-96.79 54.44,-181.48 133.08,-235.92 84.69,-54.45 175.43,-102.84 272.22,-133.09 96.79,-30.24 193.57,-72.59 278.27,-120.98 84.68,-48.39 133.08,-133.08 139.13,-229.87 12.1,102.83 -12.1,199.62 -66.54,290.36 -48.4,72.59 -108.89,139.13 -181.48,193.58 z m -496.04,-362.96 c -66.54,60.5 -120.98,133.09 -163.33,211.73 -48.39,84.68 -66.54,187.52 -54.44,284.31 l -66.54,-48.39 -96.79,-66.55 -96.79,-60.49 -66.54,-42.34 c 0,-90.74 42.34,-181.48 114.93,-241.97 78.64,-66.54 169.38,-114.94 260.12,-157.28 96.79,-36.3 187.53,-84.69 272.22,-145.18 78.64,-54.45 127.03,-145.19 120.98,-241.97 18.15,96.78 6.05,205.67 -42.34,290.36 -60.5,90.74 -114.94,157.28 -181.48,217.77 z m -532.33,-320.61 c -60.49,66.54 -108.89,145.18 -145.19,223.82 -36.29,90.74 -48.39,193.58 -30.24,290.37 -12.1,-6.05 -42.35,-24.2 -72.59,-42.35 -30.25,-18.14 -66.54,-36.29 -102.84,-54.44 -72.59,-36.29 -145.18,-72.59 -175.43,-84.69 -12.09,-96.79 18.15,-187.53 84.69,-254.07 72.59,-72.59 157.28,-133.08 248.02,-181.47 90.74,-48.4 175.43,-102.84 254.07,-169.39 72.59,-60.49 108.89,-157.27 96.79,-254.06 30.25,96.79 24.19,205.67 -12.1,296.41 -36.29,84.69 -90.74,157.28 -145.18,229.87 z m -574.68,-272.22 c -48.4,72.6 -90.74,157.29 -120.99,241.98 -30.24,96.78 -30.24,193.57 0,290.36 -18.14,-6.05 -42.34,-18.15 -72.59,-30.25 l -108.88,-42.34 c -36.3,-12.1 -78.64,-30.25 -108.89,-42.35 l -78.64,-24.19 c -24.2,-90.74 0,-187.53 54.44,-266.17 66.54,-78.64 139.13,-151.23 223.83,-205.67 84.68,-54.45 169.37,-120.99 241.96,-193.58 66.55,-66.54 90.74,-169.38 66.55,-260.12 24.19,48.4 36.29,102.84 42.34,163.33 0,48.4 -6.05,90.74 -18.15,139.14 -30.24,72.59 -66.54,157.28 -120.98,229.86 z m -604.93,-205.67 c -42.34,78.64 -72.59,163.33 -90.74,254.07 -18.14,96.79 0,199.62 42.35,290.36 -36.29,-12.09 -108.88,-30.24 -193.58,-48.39 -84.68,-18.15 -157.28,-36.29 -193.57,-42.35 -36.3,-90.73 -30.25,-187.52 18.15,-266.16 54.44,-90.74 120.98,-169.38 199.62,-235.92 78.64,-66.54 151.23,-145.19 211.73,-223.83 60.49,-78.63 72.59,-181.47 30.24,-266.16 54.44,84.69 78.64,193.57 60.49,296.41 -12.09,78.64 -42.34,163.33 -84.69,241.97 z m -689.61,139.14 c 0,96.78 24.2,193.57 78.64,278.26 -36.3,-6.05 -114.93,-12.1 -193.57,-24.2 -78.64,-12.1 -163.33,-12.1 -199.63,-12.1 -48.394,-78.64 -54.444,-181.47 -24.198,-266.16 36.298,-96.79 96.788,-181.48 163.328,-260.12 66.54,-78.64 133.09,-163.33 181.48,-254.07 48.39,-84.69 42.34,-187.52 -12.1,-272.22 72.59,78.64 108.89,175.43 108.89,278.27 -6.05,90.74 -24.2,181.48 -54.45,266.17 -30.24,90.74 -48.39,175.43 -48.39,266.17 z m -689.614,254.06 c -42.343,0 -78.64,6.05 -114.933,12.1 -36.297,6.05 -60.496,6.05 -78.645,12.1 -60.488,-72.59 -84.687,-169.38 -66.539,-260.12 24.195,-102.84 60.492,-193.57 114.938,-284.31 54.441,-90.74 102.836,-181.48 139.128,-278.27 36.297,-90.74 12.102,-193.57 -54.441,-266.17 84.691,60.5 139.133,157.29 151.231,260.12 6.05,90.74 6.05,181.48 -12.098,266.17 -12.098,90.74 -18.149,181.48 -6.051,266.17 6.051,48.39 18.149,90.74 36.297,133.08 12.098,24.2 24.195,42.34 36.297,66.54 12.098,24.2 30.246,48.4 48.394,66.54 -18.148,0 -48.394,0 -78.64,0 -30.246,0 -78.641,6.05 -114.938,6.05 z m -568.6287,84.69 c -78.6406,18.15 -157.2812,42.35 -193.5743,48.4 -72.594,-60.49 -108.887,-157.28 -102.84,-248.02 6.051,-102.84 36.297,-199.63 72.594,-296.42 42.344,-96.78 72.5899,-193.57 90.7383,-296.41 6.0469,-42.34 6.0469,-90.74 -6.0508,-133.08 -18.1484,-48.4 -42.3435,-90.74 -84.6875,-120.99 90.7383,54.45 157.277375,139.14 187.5235,235.92 24.1992,84.69 30.2461,175.43 30.2461,266.17 0,90.74 12.1015,181.48 30.2461,266.17 12.1013,42.34 36.2973,84.69 60.4963,127.03 30.246,42.35 66.539,84.69 102.836,114.94 -18.149,0 -48.395,6.05 -78.641,12.09 -30.246,6.06 -72.59,18.15 -108.8867,24.2 z m -659.3673,211.73 -72.59,30.24 c -78.64,-54.44 -127.035,-139.13 -133.086,-235.92 -6.047,-102.84 6.051,-205.67 30.246,-302.46 24.2,-96.79 42.344,-199.63 48.395,-302.46 6.051,-96.79 -42.344,-187.53 -127.031,-241.97 96.785,42.34 169.375,114.93 211.722,205.67 36.293,84.69 54.442,169.38 66.539,260.12 12.098,90.74 36.297,175.43 66.543,260.12 42.344,90.73 108.887,163.33 193.575,217.77 -36.293,12.1 -108.883,36.3 -187.524,66.54 -24.199,12.1 -66.543,24.2 -96.789,42.35 z m -314.562,133.08 -102.838,48.39 -102.83,54.45 -72.59,36.29 c -84.7,-48.39 -139.14,-127.03 -157.29,-217.77 -12.1,-102.84 -12.1,-199.63 0,-302.46 18.15,-102.84 18.15,-205.68 12.1,-308.51 -6.05,-96.79 -66.54,-181.48 -151.23,-223.83 96.79,30.25 181.48,96.79 235.92,181.48 42.35,78.64 78.64,163.33 96.79,248.02 24.2,84.69 54.44,169.38 96.79,248.02 54.439,84.69 127.029,151.23 217.771,193.57 z m -502.088,278.26 -48.39,30.25 -48.4,30.25 c -66.54,42.34 -139.13,90.73 -163.33,108.88 -84.69,-36.29 -151.23,-114.93 -175.42,-205.67 -24.2,-96.79 -36.3,-199.63 -30.25,-302.46 6.05,-102.84 0,-205.68 -18.15,-308.52 -18.14,-96.78 -78.64,-175.42 -169.37,-211.72 96.78,24.2 187.52,78.64 248.01,163.33 48.4,72.59 90.74,157.28 120.99,241.97 30.25,84.69 72.59,169.38 120.98,241.97 60.5,78.64 139.14,139.13 235.92,169.38 -18.15,6.05 -42.34,24.2 -72.59,42.34 z m -411.35,272.22 c -30.24,18.15 -96.79,66.54 -157.28,114.94 l -90.74,72.59 -60.49,48.39 c -90.74,-30.25 -157.28,-102.84 -193.58,-193.57 -30.24,-96.79 -48.39,-199.63 -54.44,-296.42 -6.04,-54.44 -6.04,-108.88 -18.15,-157.28 -6.04,-48.39 -18.14,-96.79 -30.24,-145.18 -24.2,-90.74 -96.79,-169.38 -187.53,-193.58 102.84,12.1 193.58,66.55 260.12,139.14 54.44,66.54 102.84,145.18 139.13,229.87 36.3,78.64 84.69,157.28 145.18,229.87 66.55,72.59 151.23,127.03 248.02,151.23 z m -453.69,350.86 c -54.44,42.342 -248.02,211.721 -296.41,260.115 -90.74,-24.199 -163.33,-90.738 -205.68,-175.429 -36.29,-96.786 -66.54,-193.576 -78.64,-296.416 -12.1,-102.83 -36.29,-199.62 -66.54,-296.41 -30.24,-90.74 -108.88,-157.28 -199.63,-181.48 102.84,6.05 193.58,48.4 266.17,120.99 60.49,66.54 114.94,139.13 157.28,223.82 42.35,78.64 96.79,151.23 157.28,217.77 78.65,66.54 169.38,108.89 266.17,127.04 z m -695.66,272.213 c 78.64,66.539 169.38,102.836 266.16,114.934 l -60.49,54.445 -84.69,78.641 c -60.49,60.492 -114.93,114.933 -139.13,139.132 -90.74,-18.148 -169.38,-78.64 -211.72,-163.332 -42.35,-90.738 -72.6,-187.523 -90.74,-290.363 -18.15,-102.836 -48.4,-199.62 -90.74,-290.36 -36.3,-84.69 -114.94,-151.23 -211.73,-169.38 241.98,12.1 338.76,163.33 447.65,314.56 54.44,78.637 108.89,151.231 175.43,211.723 z m -133.09,520.234 c -24.19,24.2 -78.63,84.692 -133.08,145.1841 -30.25,30.2461 -54.44,60.4922 -78.64,84.68749 -24.2,24.19921 -42.34,48.39451 -54.44,60.49221 -90.74,-12.0977 -175.43,-66.54299 -223.83,-145.1797 -48.39,-90.7381 -90.73,-181.4801 -114.93,-284.3161 -24.2,-96.789 -60.49,-193.575 -102.84,-284.313 -42.34,-84.691 -127.03,-139.133 -223.82,-151.23 102.84,-6.051 199.63,30.246 278.27,90.738 66.54,54.441 133.08,120.984 187.52,193.574 120.99,139.133 235.92,278.266 465.79,290.363 z m -852.94,175.4302 c 60.49,66.5391 127.04,127.0312 199.63,181.4768 84.68,54.441 181.47,78.64 278.26,78.64 -24.2,24.196 -72.59,90.739 -120.98,157.282 -48.4,66.539 -96.79,133.082 -114.94,157.277 -211.72,-12.098 -290.36,-205.676 -375.05,-399.25 l -18.15,-36.293 -6.05,-18.1484 -6.05,-12.0977 -6.05,-12.1016 -6.05,-18.1445 c 0,-6.0508 -6.05,-12.1015 -6.05,-18.1484 l -6.05,-36.2969 c -18.14,-48.3945 -42.34,-90.7385 -66.54,-133.0825 -24.19,-36.296 -54.44,-72.589 -96.78,-96.789 -42.35,-24.195 -90.74,-42.343 -139.14,-36.296 54.44,-6.047 108.89,-6.047 163.33,6.05 42.34,12.098 90.74,30.246 127.04,54.446 72.59,48.39 139.13,114.933 199.62,181.4762"
         style="fill:#000000;fill-opacity:1;fill-rule:nonzero;stroke:none"
         transform="matrix(0.13333333,0,0,-0.13333333,0,1056)" />
    </g>
  </g>
</svg>
