<?xml version="1.0" encoding="UTF-8" standalone="no"?>
<!-- Created with Inkscape (http://www.inkscape.org/) -->

<svg
   version="1.1"
   id="svg1"
   width="816"
   height="1056"
   viewBox="0 0 816 1056"
   sodipodi:docname="texturelabs_vector_291.pdf"
   xmlns:inkscape="http://www.inkscape.org/namespaces/inkscape"
   xmlns:sodipodi="http://sodipodi.sourceforge.net/DTD/sodipodi-0.dtd"
   xmlns="http://www.w3.org/2000/svg"
   xmlns:svg="http://www.w3.org/2000/svg">
  <defs
     id="defs1" />
  <sodipodi:namedview
     id="namedview1"
     pagecolor="#ffffff"
     bordercolor="#000000"
     borderopacity="0.25"
     inkscape:showpageshadow="2"
     inkscape:pageopacity="0.0"
     inkscape:pagecheckerboard="0"
     inkscape:deskcolor="#d1d1d1">
    <inkscape:page
       x="0"
       y="0"
       inkscape:label="1"
       id="page1"
       width="816"
       height="1056"
       margin="0"
       bleed="0" />
  </sodipodi:namedview>
  <g
     id="g1"
     inkscape:groupmode="layer"
     inkscape:label="1">
    <g
       id="group-R5">
      <path
         id="path2"
         d="m 1600.72,1600.89 v 0 L 2700.49,891.793 7005.04,1600.89 2700.49,2309.98 3692.21,3691.71 1612.54,1613.04 v 0 L 3692.21,3691.71 2310.49,2701 1600.72,7005.55 v -5373.6 0 5373.6 L 891.621,2701 v 0 L -490.102,3691.71 500.605,2309.98 -3803.95,1600.89 500.605,891.793 v 0 L -490.102,-490.609 1544.67,1544.16 v 0 L -490.102,-490.609 891.621,500.102 1600.72,-3804.45 v 0 L 2309.81,500.102 1609.84,1586.03 v 0 l -8.79,13.85 v 0 l 709.1,-1099.778 1382.06,-990.711 -990.7,1381.726 z m 1106.86,675.33 3888.89,-641.57 H 1714.18 Z M 2334.46,2678.71 3378.52,3426.3 1798.25,1846.03 Z M 1567.29,6596.64 V 1683.62 l -643.927,999.82 1.688,11.82 z M 872.039,2673.65 903.777,2651.03 1458.9,1789.98 -177.426,3426.3 Z M 1517.99,1567.46 518.164,922.855 506.348,924.883 -3395.03,1566.45 Z M -224.695,-176.918 527.957,872.547 550.918,904.285 1411.63,1459.07 Z M 1634.15,1487.43 2275.71,494.023 1634.15,-3394.52 Z M 1845.52,1403.35 2676.86,867.48 3425.8,-176.918 1845.52,1403.35"
         style="fill:#000000;fill-opacity:1;fill-rule:nonzero;stroke:none"
         transform="matrix(0.13333333,0,0,-0.13333333,0,1056)" />
    </g>
  </g>
</svg>
