<?xml version="1.0" encoding="UTF-8" standalone="no"?>
<!-- Created with Inkscape (http://www.inkscape.org/) -->

<svg
   version="1.1"
   id="svg1"
   width="816"
   height="1056"
   viewBox="0 0 816 1056"
   sodipodi:docname="texturelabs_vector_201.pdf"
   xmlns:inkscape="http://www.inkscape.org/namespaces/inkscape"
   xmlns:sodipodi="http://sodipodi.sourceforge.net/DTD/sodipodi-0.dtd"
   xmlns="http://www.w3.org/2000/svg"
   xmlns:svg="http://www.w3.org/2000/svg">
  <defs
     id="defs1" />
  <sodipodi:namedview
     id="namedview1"
     pagecolor="#ffffff"
     bordercolor="#000000"
     borderopacity="0.25"
     inkscape:showpageshadow="2"
     inkscape:pageopacity="0.0"
     inkscape:pagecheckerboard="0"
     inkscape:deskcolor="#d1d1d1">
    <inkscape:page
       x="0"
       y="0"
       inkscape:label="1"
       id="page1"
       width="816"
       height="1056"
       margin="0"
       bleed="0" />
  </sodipodi:namedview>
  <g
     id="g1"
     inkscape:groupmode="layer"
     inkscape:label="1">
    <g
       id="group-R5">
      <path
         id="path2"
         d="m 2201.67,-1097.95 c 272.16,-239.9 549.7,-624.98 906.65,-780.91 356.95,-155.94 1478.27,344.95 2062.29,688.26 -115.81,214.252 -215.49,381.354 -316.41,596.846 178.26,-170.41 433.05,-101.336 823.51,-50.875 390.45,50.461 1034.04,1009.641 1034.04,1299.582 0,289.945 -927.74,1349.217 -1159.78,1357.497 -232.04,8.27 -552.59,5.37 -730.86,-165.45 101.33,215.49 251.89,454.98 367.29,667.99 -583.61,343.3 -1781.45,819.79 -2080.08,756.92 -298.63,-62.87 -835.92,-528.19 -1108.49,-768.09 148.49,268.85 438.02,586.93 608.84,851.23 -268.56,56.44 -542.48,83.35 -816.89,80.24 -522.81,0 -1215.62,121.19 -1517.561,13.23 C -27.7227,3340.57 -441.754,2677.96 -812.352,2343.75 -664.277,2621.7 -655.18,3280.18 -342.898,3360.42 -1715.69,3007.61 -2626.89,1939.23 -2721.2,908.504 c -482.68,96.376 -1056.37,82.723 -1199.48,82.723 -135.25,-183.649 -185.3,-305.25 -176.62,-553.008 142.29,0 1015.85,117.469 1393.89,-25.645 95.13,-1030.316 1069.61,-2279.444 2505.691,-2373.744 -315.176,220.46 -384.25,454.98 -641.933,817.72 289.531,-407 924.0192,-731.69 1208.175,-859.5 284.157,-127.8 900.447,-129.04 1423.257,-129.04 305.25,0 625.8,-10.35 920.71,48.39 -172.48,263.06 -361.92,716.38 -510.82,985.65 z m -1128.76,-510.82 c -76.176,20.01 -148.265,53.18 -213.012,98.03 -73.886,51.87 -138.964,115.27 -192.746,187.78 C 550.93,-1171.16 476.891,-974.281 416.09,-773.262 297.797,-370.813 174.535,-13.8633 76.9219,243.82 57.0313,299.898 23.9805,350.395 -19.4492,391.066 c -33.793,29.215 -69.5899,56.032 -107.1248,80.243 -13.239,10.754 -79.004,32.261 -89.758,41.363 -395.418,31.019 -696.117,62.871 -1007.988,89.34 l -124.08,10.34 c 46.31,-30.414 90.15,-64.438 131.11,-101.75 93.58,-88.211 175.33,-188.172 243.212,-297.391 82.488,-132.1876 154.801,-270.461 216.324,-413.613 65.762,-150.145 124.082,-292.43 188.609,-417.34 54.457,-110.969 119.563,-216.383 194.399,-314.766 50.937,-66.344 109.367,-126.582 174.133,-179.512 22.336,-19.85 41.359,-31.43 55.011,-41.36 l 19.438,-14.48 -21.922,10.76 c -21.121,9.61 -41.695,20.38 -61.629,32.26 -74.555,43.7 -142.867,97.26 -203.086,159.246 -88.961,92.625 -166.195,195.84 -229.969,307.317 -76.894,135.023 -145.945,274.371 -206.808,417.339 -65.766,148.9028 -129.461,289.5318 -197.292,410.719 -57.86,109.086 -127.19,211.692 -206.81,306.078 -43.86,51.606 -92.62,98.84 -145.59,141.043 -304.01,25.645 -651.04,11.168 -832.62,24.403 -214.66,14.062 -236.58,54.597 -236.58,54.597 l 334.2,-6.203 c 167.93,-4.551 394.18,-11.996 667.57,-24.816 h 27.31 l 217.14,-11.168 h 8.69 l 32.26,26.887 44.26,35.57 c 15.3,14.062 31.02,30.605 48.39,47.152 34.33,34.328 75.28,70.727 114.162,117.465 l 63.281,71.145 c 21.508,25.23 41.363,52.946 64.109,82.726 45.5,54.59 88.516,117.88 136.082,182.4 91.825,131.94 188.61,280.43 292.012,435.95 97.469,147.8 202.387,290.54 314.352,427.68 54.5973,61.63 104.230125,121.61 157.9997,171.65 26.4726,25.23 51.2893,50.46 76.1053,73.21 l 75.277,62.46 c 43.157,35.63 88.614,68.38 136.083,98.03 20.265,13.23 41.359,26.47 57.078,37.22 l 51.289,26.06 95.543,47.98 -87.274,-61.21 -46.324,-35.58 c -16.543,-12.82 -33.09,-28.12 -51.703,-43.84 -42.543,-34.09 -83.012,-70.69 -121.188,-109.61 l -67.007,-67.42 c -21.922,-24.4 -43.844,-50.87 -67.418,-77.76 -47.9809,-52.11 -92.2387,-114.57 -141.8715,-177.02 -94.7185,-129.47 -193.1605,-275.89 -296.9765,-431 -103.816,-155.1 -206.809,-302.35 -308.145,-430.98 -52.117,-62.87 -100.507,-124.09 -151.382,-176.204 -25.231,-26.473 -48.395,-52.942 -72.797,-76.52 l -71.559,-66.179 c -40.891,-37.93 -83.988,-73.426 -129.048,-106.297 -19.85,-14.891 -37.64,-28.953 -55.01,-41.364 l -46.32,-50.046 c 372.249,-21.094 779.249,-41.364 1262.3547,-69.075 l 20.2653,21.922 28.953,31.848 31.024,41.363 c 25.98,31.695 50.148,64.84 72.383,99.266 l 41.359,59.562 c 12.41,21.922 25.645,44.258 41.363,67.832 28.125,45.5 52.942,98.028 82.723,150.972 54.598,108.37 111.676,229.56 173.305,356.95 61.629,127.39 124.086,248.17 189.437,354.88 33.918,52.53 63.699,103.41 98.028,147.66 16.546,21.93 32.261,43.85 47.566,64.53 l 48.394,56.25 c 27.313,32.65 56.895,63.33 88.515,91.82 l 37.64,35.58 c 12.41,9.92 23.99,19.02 34.74,26.88 l 64.52,48.81 -53.77,-59.98 -28.95,-31.85 c -9.51,-12.4 -19.85,-26.05 -30.6,-41.36 -25.88,-32.25 -49.91,-65.95 -71.97,-100.92 l -41.367,-59.98 c -12.41,-21.92 -25.644,-44.25 -38.879,-67.83 -28.129,-45.5 -52.531,-98.44 -82.722,-151.38 C 791.238,1611.24 734.16,1490.05 672.117,1362.65 610.074,1235.26 548.031,1114.48 482.68,1007.77 448.352,955.656 418.156,904.781 383.828,860.938 l -47.98,-64.528 -48.809,-55.836 c -27.551,-32.308 -57.262,-62.711 -88.926,-90.996 l -38.054,-35.57 c -12.821,-9.93 -14.063,-18.613 -24.817,-26.887 l -5.789,-12.406 c 501.719,-26.887 1053.477,-53.774 1632.137,-53.774 27.29,21.508 58.31,50.875 93.89,85.207 17.78,17.372 37.22,35.157 57.49,54.598 l 61.21,64.109 c 87.28,88.516 183.23,201.43 289.53,325.935 106.31,124.5 221.7,265.54 346.61,410.3 124.92,144.77 248.18,278.37 372.26,394.18 106.24,103.13 220.33,197.86 341.23,283.33 l 74.46,50.87 69.9,41.37 60.8,34.32 c 18.61,10.34 37.64,16.97 53.35,24.41 l 100.51,41.36 c 0,0 -33.5,-19.85 -93.06,-56.66 -14.48,-9.11 -31.85,-17.79 -48.81,-30.61 l -55.42,-41.36 -63.7,-46.75 -67,-57.49 C 3245.19,2003.91 3141.06,1903.51 3042.97,1797.36 2931.29,1677 2813.41,1540.09 2688.09,1396.57 2562.76,1253.05 2442.4,1116.55 2328.65,995.773 2227.56,888.316 2120.98,786.152 2009.34,689.699 l -67.83,-59.562 -64.11,-48.391 c -31.44,-23.578 -59.56,-44.258 -85.21,-60.805 143.53,0 284.99,2.899 424.37,4.965 h 35.57 c 129.88,4.551 258.93,8.274 385.08,15.305 275.47,14.477 541.43,36.812 794.97,57.906 l 305.25,26.059 c 30.2,26.469 68.25,59.558 114.16,96.371 161.66,132.16 335.15,249.156 518.26,349.503 183.63,102.15 380.62,178.16 585.27,225.84 41.36,8.27 75.28,15.3 107.54,18.61 27.39,4.18 55.02,6.67 82.72,7.45 h 69.49 l -67.01,-16.96 c -21.5,-4.55 -47.15,-14.06 -76.93,-23.58 -29.78,-9.51 -63.28,-21.51 -100.09,-35.57 -189.21,-77.25 -373.48,-166.07 -551.77,-265.953 L 3848.28,630.551 c 364.4,30.195 641.52,55.426 933.53,65.765 192.75,7.032 367.71,10.754 521.58,0 131.43,-7.093 261.75,-28.027 388.79,-62.457 80.08,-22.394 157.47,-53.461 230.8,-92.648 25.65,-12.41 43.43,-25.231 56.25,-32.262 l 18.62,-11.168 -19.44,10.34 c -12.82,6.203 -31.02,18.199 -57.08,29.367 -74.55,35.559 -152.6,63.282 -232.87,82.723 -127.02,28.371 -256.6,43.754 -386.73,45.91 -151.8,4.137 -325.52,-5.789 -517.02,-19.437 -383.84,-26.059 -838.82,-77.762 -1345.5,-130.704 l -212.6,-21.093 c 52.53,-11.168 109.61,-24.821 171.24,-44.258 101.67,-29.508 196.92,-77.766 280.85,-142.285 23.16,-18.614 41.36,-36.813 60.8,-54.598 l 55.01,-53.769 C 3830.5,163.992 3864,129.246 3895.43,95.7461 l 168.34,-176.6133 c 48.4,-50.0468 88.52,-89.7578 116.65,-116.6408 l 44.25,-41.363 c 0,0 -19.44,9.516 -53.77,29.367 -34.33,19.856 -82.72,49.633 -140.21,90.582 -57.49,40.9493 -124.09,93.4767 -193.58,153.4533 -35.15,30.1914 -71.55,62.457 -108.78,95.5427 -18.61,16.961 -37.22,33.918 -56.66,50.875 -19.44,16.961 -38.47,35.16 -56.67,49.637 -75.37,57.672 -158.14,104.969 -246.1,140.629 -82.72,35.984 -160.48,64.109 -225.42,89.34 l -55.84,21.093 c -144.76,-13.234 -292.84,-25.23 -445.05,-34.742 -93.06,-6.203 -187.78,-10.34 -282.91,-14.062 40.8,-41.961 78.93,-86.446 114.16,-133.184 80.29,-112.16 151.26,-230.7147 212.18,-354.4725 71.14,-137.3205 142.69,-289.5315 232.04,-438.4335 79.68,-139.703 185.24,-262.949 311.04,-363.152 105.35,-77.981 228.71,-128.063 358.6,-145.592 88.94,-12.1 179.5,-2.45 263.89,28.123 l 41.36,16.957 c 11.17,4.965 19.85,11.168 27.71,14.89 l 22.75,12.825 -20.68,-16.547 c -6.62,-4.961 -14.89,-12.406 -25.23,-19.438 l -37.64,-22.75 c -84.09,-44.95 -178.5,-67.05 -273.81,-64.11 -143.31,3.32 -282.89,46.27 -403.28,124.083 -143.41,99.254 -262.7,229.434 -349.09,380.941 -83.77,146.84 -158.23,298.797 -222.94,454.9808 -52.65,124.4102 -112.73,245.5432 -179.92,362.7382 -32.67,55.352 -68.87,108.543 -108.37,159.242 l -104.23,-4.132 c -143.53,-2.899 -289.54,-7.446 -436.37,-6.208 -337.51,0 -665.09,10.754 -979.03,26.887 16.45,-11.449 32.196,-23.883 47.153,-37.226 58.226,-49.395 112.445,-103.336 162.137,-161.309 60.03,-70.559 116.23,-144.285 168.34,-220.8711 55.01,-82.7226 104.23,-158.8279 149.32,-229.1449 45.08,-70.316 86.86,-133.183 124.08,-184.472 17.79,-26.059 35.99,-48.395 50.88,-68.66 14.89,-20.27 28.95,-37.227 41.36,-50.875 l 35.57,-41.364 -47.15,28.539 c -14.89,10.34 -33.09,23.578 -52.53,41.364 -19.44,17.785 -41.36,35.156 -65.77,57.906 -55.27,51.687 -107.08,106.957 -155.1,165.445 -53.77,66.18 -109.2,141.871 -165.45,222.1135 L 943.863,193.773 c -47.566,68.247 -90.996,129.461 -131.113,178.27 -19.027,25.23 -38.469,45.91 -55.012,65.352 l -8.687,9.925 c -215.906,11.582 -425.199,25.645 -626.215,41.36 l -261.82,20.269 23.578,-14.476 C -74.9297,469.426 -36.1055,441.793 0.816406,411.746 24.8125,393.086 47.0977,372.32 67.4102,349.707 78.4727,336.676 88.5664,322.852 97.6055,308.344 106.754,293.246 115.039,277.641 122.422,261.605 279.227,-63.0156 409.391,-399.844 511.637,-745.551 c 60.386,-199.777 124.082,-385.489 223.765,-529.839 82.914,-131.32 206.325,-232.08 351.578,-287.06 101.47,-34.24 207.67,-52.38 314.76,-53.76 38.46,0 68.24,0 88.51,0 h 31.02 l -30.61,-5.38 c -19.85,-2.89 -49.63,-7.03 -88.09,-10.75 -110.43,-11.14 -221.94,-3.17 -329.66,23.57"
         style="fill:#000000;fill-opacity:1;fill-rule:nonzero;stroke:none"
         transform="matrix(0.13333333,0,0,-0.13333333,0,1056)" />
    </g>
  </g>
</svg>
