<?xml version="1.0" encoding="UTF-8" standalone="no"?>
<!-- Created with Inkscape (http://www.inkscape.org/) -->

<svg
   version="1.1"
   id="svg1"
   width="816"
   height="1056"
   viewBox="0 0 816 1056"
   sodipodi:docname="texturelabs_vector_232.pdf"
   xmlns:inkscape="http://www.inkscape.org/namespaces/inkscape"
   xmlns:sodipodi="http://sodipodi.sourceforge.net/DTD/sodipodi-0.dtd"
   xmlns="http://www.w3.org/2000/svg"
   xmlns:svg="http://www.w3.org/2000/svg">
  <defs
     id="defs1" />
  <sodipodi:namedview
     id="namedview1"
     pagecolor="#ffffff"
     bordercolor="#000000"
     borderopacity="0.25"
     inkscape:showpageshadow="2"
     inkscape:pageopacity="0.0"
     inkscape:pagecheckerboard="0"
     inkscape:deskcolor="#d1d1d1">
    <inkscape:page
       x="0"
       y="0"
       inkscape:label="1"
       id="page1"
       width="816"
       height="1056"
       margin="0"
       bleed="0" />
  </sodipodi:namedview>
  <g
     id="g1"
     inkscape:groupmode="layer"
     inkscape:label="1">
    <g
       id="group-R5">
      <path
         id="path2"
         d="m -3272.58,-1622.9 c 101.85,9.11 188.62,-43.38 267.21,-111.28 31.96,-36.77 86.98,-42.41 125.74,-12.89 307.13,182.64 616.47,362.14 918.25,553.9 157.18,99.02 321.27,181.07 479.08,276.322 440.11,265.633 884.616,526.239 1328.808,785.903 362.769,212.5036 727.113,424.383 1095.859,628.718 368.743,204.336 721.143,413.383 1080.453,622.117 81.74,47.79 92.11,99.97 36.47,176.36 -199.31,273.18 -377.23,560.5 -578.42,833.05 -201.19,272.56 -382.58,557.68 -585.343,828.03 C 619.832,3325.45 374.004,3714 99.8828,4083.05 -111.684,4365.98 -308.785,4663.99 -506.52,4957.29 c -229.484,336.05 -467.769,666.44 -695.37,1004.38 -31.43,46.21 -58.15,44.96 -102.16,31.44 -209.79,-73.36 -439.41,36.68 -513.67,246.14 -60.67,163.79 -13.51,314.36 101.23,432.56 98.63,102.46 247.64,138.6 382.26,92.74 320.96,-96.82 413.07,-399.55 198.05,-664.87 -23.88,-22.01 -25.39,-59.2 -3.39,-83.07 1.09,-1.17 2.21,-2.3 3.39,-3.38 311.84,-412.13 598.852,-842.18 896.239,-1264.36 167.8668,-238.6 348.937,-468.4 507.062,-713.28 149.32,-231.37 310.59,-454.25 471.539,-677.14 163.469,-227.91 310.59,-466.19 473.74,-694.42 187.05,-261.23 372.21,-524.35 549.19,-793.13 134.23,-204.02 291.41,-393.26 425.02,-597.28 25.14,-38.98 53.12,-29.87 84.24,-10.38 220.06,139.58 454.26,258.72 678.08,394.21 248.97,150.89 511.78,279.47 760.12,431.3 185.47,113.17 377.24,220.05 562.08,330.39 334.79,200.88 675.25,392.01 1005.95,599.18 251.49,157.18 515.55,294.87 767.04,453.31 110.03,69.16 221.94,143.03 345.8,188.61 55.33,20.43 79.22,50.3 67.58,118.83 -27.97,166.29 50.3,307.44 188.62,364.66 148.06,60.67 320.02,22.63 405.21,-90.23 97.56,-130.48 97.56,-309.62 0,-440.1 -85.82,-115.06 -318.76,-152.78 -435.7,-70.73 -116.94,82.05 -115.37,75.76 -232.31,5.97 -251.49,-149 -503.71,-295.71 -756.67,-440.1 C 5236.84,2886.6 4840.75,2676.29 4457.54,2443.04 4215.8,2295.6 3966.2,2162 3726.03,2011.11 c -188.62,-117.89 -385.72,-222.89 -577.48,-336.06 -246.46,-145.23 -491.03,-293.3 -740.64,-433.5 -15.71,-8.8 -40.55,-16.03 -35.2,-39.3 5.34,-23.26 31.43,-15.08 49.35,-19.48 42.44,-11.32 85.19,-21.38 125.74,-34.59 25.27,-7.46 40.13,-33.55 33.64,-59.09 -5.97,-38.36 -34.89,-27.98 -58.15,-24.52 -46.22,6.6 -92.43,14.77 -138.64,22.63 -18.23,3.14 -39.29,15.72 -51.87,-6.29 -12.57,-22 6.92,-35.84 17.92,-50.93 114.43,-157.175 230.74,-314.355 342.66,-474.363 230.42,-329.137 471.53,-649.4686 682.47,-993.379 125.74,-208.105 281.04,-399.867 422.19,-599.488 76.07,-107.82 150.57,-217.22 226.02,-325.68 145.55,-209.99 289.84,-420.93 437.28,-628.71 96.82,-137.07 191.13,-276.33 288.58,-412.45 102.48,-142.72 196.79,-291.72 305.87,-429.41 19.06,-24.23 51.51,-33.48 80.48,-22.95 56.27,10.37 111.29,26.4 171.33,14.46 185.78,-36.78 301.15,-198.05 267.83,-381.32 -28.27,-183.18 -198.82,-309.4 -382.26,-282.92 -262.18,41.18 -377.23,296.44 -231.06,522.78 30.91,35.5 30.91,88.35 0,123.85 -164.51,230.53 -327.25,462.43 -488.2,695.69 -87.71,125.74 -165.35,259.66 -258.09,383.52 -145.23,193.33 -284.5,391.69 -424.07,589.42 -176.04,248.974 -345.8,502.978 -526.55,748.493 -201.51,272.235 -390.44,552.957 -585.97,829.282 -144.29,204.648 -281.04,414.64 -419.36,623.065 -60.04,90.53 -66.01,97.45 -162.21,44.32 C 1979.75,989.434 1866.9,915.246 1751.84,847.027 1362.35,618.488 971.914,392.148 583.051,162.664 357.969,30.0078 141.063,-117.113 -89.3633,-239.086 -452.137,-431.16 -801.078,-647.754 -1158.19,-849.262 c -302.73,-173.208 -607.35,-343.278 -909.45,-518.058 -250.02,-144.4 -501.5,-286.18 -754.46,-425.34 -62.87,-34.89 -88.65,-67.27 -72.62,-148.69 29.87,-147.75 -6.28,-288.58 -127.94,-388.23 -113.71,-97.3 -271.74,-124.12 -411.18,-69.79 -174.16,62.87 -282.93,280.09 -243.63,468.39 39.29,188.31 196.47,307.14 404.89,308.08 z m 4774.19,-1235.44 c 33.33,57.21 46.53,121.03 1.89,169.76 -60.98,66.33 -46.21,134.54 -31.44,206.85 13.21,58.78 27.67,117.57 42.76,176.04 8.17,31.43 13.2,60.04 -31.44,68.84 -36.15,7.23 -57.53,-3.14 -66.33,-40.86 -11.94,-53.76 -18.55,-108.15 -26.09,-162.53 -9.43,-64.44 -6.6,-137.06 -92.42,-166.92 -84.93,-29.54 -131.61,-120.67 -105.94,-206.85 18.23,-79.54 76.07,-119.78 180.76,-120.72 55.95,-5.66 96.82,23.89 128.25,76.39 z m 1603.24,7988.53 c -65.08,22.16 -136.97,-1.58 -176.04,-58.15 -48.49,-59.96 -48.49,-145.65 0,-205.6 30.62,-32.15 41.12,-78.51 27.35,-120.71 -22.95,-96.2 -42.12,-193.34 -64.45,-289.84 -8.48,-35.53 0,-60.36 36.47,-69.16 45.9,-10.38 48.41,26.72 53.13,55.01 8.49,51.56 11,104.05 20.12,155.3 17.6,96.82 14.46,204.01 147.12,234.82 58.16,13.52 76.08,74.19 81.73,125.75 -0.27,78.53 -50.81,148.07 -125.43,172.58 z M -3119.48,2261.02 c -59.55,-31.5 -97.77,-92.37 -100.29,-159.7 -7.11,-62.55 29.92,-121.74 89.28,-142.71 62.88,-27.67 122.92,-20.75 165.67,29.23 32.91,45.06 92.14,62.13 143.98,41.5 66.88,-14.63 134.59,-25.12 202.76,-31.44 21.06,-3.14 49.35,-10.06 54.07,19.49 4.72,29.55 -26.09,31.44 -45.9,34.58 -72.61,13.83 -145.54,26.72 -218.48,37.73 -41.84,1.83 -78.11,29.57 -90.84,69.47 -25.16,67.59 -79.22,103.11 -168.19,107.2 -11.7,1.68 -23.63,-0.18 -34.26,-5.35 z M 6499.95,506.891 c -61.22,-42.196 -138.47,-53.793 -209.37,-31.438 -25.15,6.606 -66.96,29.238 -75.76,-16.344 -8.8,-45.582 36.15,-39.609 62.87,-49.043 10.2,-3.054 20.79,-4.64 31.44,-4.714 61.3,0 101.54,-17.918 116.62,-88.649 15.09,-70.73 94.31,-113.484 167.56,-101.851 76.2,14.199 132.14,79.695 134.23,157.179 2.52,114.742 -128.26,198.989 -227.59,134.86 z M 541.242,1465.06 c 7.664,25.98 -7.183,53.25 -33.16,60.91 -3.836,1.14 -7.797,1.8 -11.793,1.96 -136.746,26.09 -274.121,51.25 -411.1835,76.71 -35.2071,6.29 -50.2969,-13.84 -56.586,-44.33 -9.5547,-27.19 4.7422,-56.97 31.9336,-66.53 2.4024,-0.85 4.8633,-1.51 7.3633,-2 135.8046,-49.04 281.0386,-41.81 419.3556,-72.93 36.781,-5.66 48.098,15.09 54.07,46.21 z M 1809.69,-711.57 c 23.15,-9.879 49.93,0.886 59.81,24.039 1.44,3.379 2.47,6.918 3.06,10.539 8.49,31.437 16.66,62.875 23.58,94.308 23.57,106.883 45.89,214.082 70.41,320.965 9.12,40.239 -10.37,55.012 -44.95,62.871 -25.46,5.032 -52.5,10.688 -60.04,-22.632 -33.01,-143.977 -62.88,-288.586 -96.2,-432.563 -6.6,-35.836 14.78,-49.984 44.33,-57.527 z m -224.77,-1011.61 c 33.63,-6.6 62.87,0 71.99,35.84 29.86,136.43 57.53,273.18 84.56,408.66 6.29,33.01 -15.4,50.3 -45.27,58.16 -20.29,9.05 -44.08,-0.07 -53.13,-20.37 -1.57,-3.52 -2.63,-7.24 -3.14,-11.06 -31.43,-138.64 -59.1,-277.9 -100.59,-413.39 -5.57,-25.8 10.84,-51.22 36.63,-56.78 2.94,-0.64 5.94,-0.99 8.95,-1.06 z M 2144.8,814.336 c -34.9,8.488 -62.88,-1.887 -68.53,-38.981 -20.84,-138.234 -51.51,-274.804 -91.8,-408.667 -13.2,-38.668 14.46,-53.129 47.16,-62.875 32.69,-9.743 55.95,0 62.87,39.296 25.77,137.375 54.7,273.809 82.36,410.868 16.35,34.582 0.32,52.812 -32.06,60.359 z m 667.07,3045.204 c -24.66,8.91 -51.87,-3.87 -60.76,-28.53 -0.94,-2.58 -1.64,-5.23 -2.11,-7.93 -31.23,-136.44 -61.62,-272.66 -91.17,-408.67 -7.54,-35.84 18.55,-47.78 47.15,-55.01 18.98,-8.17 40.99,0.59 49.16,19.56 2.16,5.04 3.2,10.48 3.03,15.96 22.14,137.65 51.42,274.06 87.71,408.67 5.97,29.86 -2.52,50.3 -33.01,55.95 z M 1559.77,1278.33 c 7.86,40.55 -17.92,53.13 -50.61,59.42 -129.2,23.57 -258.41,46.84 -387.61,71.36 -22.57,8.54 -47.79,-2.82 -56.34,-25.39 -1.57,-4.16 -2.5,-8.53 -2.76,-12.97 -7.23,-33.32 2.52,-51.24 37.73,-58.15 123.87,-27.22 249.04,-48.21 375.03,-62.88 49.67,-6.59 77.65,-7.86 84.56,29.55 z m -2055.918,367.49 c 9.039,22.19 -1.625,47.5 -23.813,56.54 -4.824,1.96 -9.961,3.04 -15.168,3.19 -133.285,20.12 -266.574,38.35 -400.18,55.64 -25.461,3.14 -40.867,-14.15 -45.265,-38.98 -4.403,-24.83 11.629,-35.53 31.433,-39.3 132.661,-24.73 265.321,-49.14 397.981,-73.24 22.129,-7.18 45.887,4.94 53.062,27.07 1.055,3.25 1.711,6.62 1.95,10.02 z M 2309.52,1388.67 c 23.26,115.69 47.47,231.06 69.79,345.8 5.03,26.09 33.64,60.98 -12.58,76.39 -46.21,15.4 -57.21,-21.38 -64.75,-54.07 -31.44,-125.75 -58.16,-251.49 -87.4,-377.24 -7.23,-31.43 9.44,-45.58 38.35,-49.03 41.5,-0.95 50.3,27.03 56.59,59.09 z m 164.73,962.89 c 38.03,-11.01 49.04,15.09 55.01,43.38 27.03,125.74 53.13,251.49 79.22,377.23 5.34,25.78 6.91,50.62 -26.72,58.47 -21.94,6.63 -45.1,-5.79 -51.72,-27.73 -0.98,-3.25 -1.56,-6.6 -1.72,-9.99 -27.36,-128.26 -69.79,-253.69 -82.37,-366.54 -8.8,-44.33 -1.25,-65.7 28.3,-73.88 z M 3592.11,913.988 c 8.49,31.438 -14.15,47.153 -39.29,52.184 -94.31,19.488 -188.62,36.778 -282.93,53.758 -35.11,6.58 -70.6,10.99 -106.25,13.2 -26.09,0 -39.61,-17.29 -42.44,-41.493 -2.83,-24.207 13.83,-34.27 34.58,-37.727 127.31,-21.691 254.63,-42.754 389.81,-65.387 13.83,2.204 38.98,-1.257 46.52,26.407 z m -5111.18,905.982 c 7.54,39.61 -16.66,53.44 -50.93,59.1 -118.83,19.29 -237.76,38.67 -356.8,58.16 -27.35,4.72 -58.47,15.41 -67.27,-23.26 -8.81,-38.67 27.35,-43.38 52.18,-48.1 123.86,-23.58 248.03,-44.64 372.2,-66.64 22.01,-8.49 44.96,-9.43 50.62,20.74 z M 4154.5,819.051 c -4.4,-36.781 28.29,-35.524 50.93,-39.922 118.51,-23.266 237.34,-45.27 356.17,-66.961 24.83,-4.715 53.13,-9.43 59.73,24.836 6.6,34.262 -25.47,37.094 -47.79,42.75 -120.98,32.551 -244.09,56.605 -368.43,71.988 -14.77,1.258 -46.21,6.918 -50.61,-32.691 z M 5641.11,558.133 c 3.46,25.777 -18.23,31.433 -37.41,34.89 -121.13,24.313 -242.26,48.309 -363.4,71.993 -22,4.086 -46.52,5.972 -51.87,-24.524 -4.08,-24.519 14.78,-33.32 34.58,-38.035 126.88,-32.301 256.2,-54.066 386.67,-65.074 3.77,0.316 27.66,-6.285 31.43,21.379 v -0.629"
         style="fill:#000000;fill-opacity:1;fill-rule:nonzero;stroke:none"
         transform="matrix(0.13333333,0,0,-0.13333333,0,1056)" />
    </g>
  </g>
</svg>
