<?xml version="1.0" encoding="UTF-8" standalone="no"?>
<!-- Created with Inkscape (http://www.inkscape.org/) -->

<svg
   version="1.1"
   id="svg1"
   width="816"
   height="1056"
   viewBox="0 0 816 1056"
   sodipodi:docname="texturelabs_vector_140.pdf"
   xmlns:inkscape="http://www.inkscape.org/namespaces/inkscape"
   xmlns:sodipodi="http://sodipodi.sourceforge.net/DTD/sodipodi-0.dtd"
   xmlns="http://www.w3.org/2000/svg"
   xmlns:svg="http://www.w3.org/2000/svg">
  <defs
     id="defs1" />
  <sodipodi:namedview
     id="namedview1"
     pagecolor="#ffffff"
     bordercolor="#000000"
     borderopacity="0.25"
     inkscape:showpageshadow="2"
     inkscape:pageopacity="0.0"
     inkscape:pagecheckerboard="0"
     inkscape:deskcolor="#d1d1d1">
    <inkscape:page
       x="0"
       y="0"
       inkscape:label="1"
       id="page1"
       width="816"
       height="1056"
       margin="0"
       bleed="0" />
  </sodipodi:namedview>
  <g
     id="g1"
     inkscape:groupmode="layer"
     inkscape:label="1">
    <g
       id="group-R5">
      <path
         id="path2"
         d="m 1029.15,6433.32 c -84.009,0 -167.498,0 -250.459,-5.77 C -2202.73,6289.59 -4507.82,3760.84 -4369.87,779.41 c 129.02,-2788.28 2360.28,-5019.54 5148.561,-5148.56 82.961,-3.67 166.45,-5.77 250.459,-5.77 2984.62,-0.54 5404.56,2418.53 5405.1,5403.15 0.54,2984.61 -2418.54,5404.56 -5403.15,5405.09 -0.65,0 -1.3,0 -1.95,0 z M 735.109,-4228.95 c -2903.849,161.63 -5126.859,2646.7 -4965.229,5550.55 149.06,2678.04 2287.18,4816.16 4965.229,4965.23 783.901,-604.9 1423.781,-1376.24 1873.481,-2258.37 954.28,-1885.83 954.28,-4113.21 0,-5999.04 -450,-881.95 -1089.82,-1653.22 -1873.481,-2258.37"
         style="fill:#000000;fill-opacity:1;fill-rule:nonzero;stroke:none"
         transform="matrix(0.13333333,0,0,-0.13333333,0,1056)" />
    </g>
  </g>
</svg>
